<?xml version="1.0" encoding="utf-8"?>
<!-- Generator: Adobe Illustrator 21.0.0, SVG Export Plug-In . SVG Version: 6.00 Build 0)  -->
<svg version="1.1" id="Layer_1" xmlns="http://www.w3.org/2000/svg" xmlns:xlink="http://www.w3.org/1999/xlink" x="0px" y="0px"
	 viewBox="0 0 176 265" style="enable-background:new 0 0 176 265;" xml:space="preserve">
<style type="text/css">
	.st0{fill:#DADADA;}
</style>
<g>
	<path class="st0" d="M7.3,51.4h161.3v162.2H7.3V51.4z M0,221.2h176V43.8H0V221.2z M115.3,107c0-0.6,0.2-0.9,0.9-0.9h11.5
		c0.6,0,0.9,0.2,0.9,0.9v59.8c0,0.6-0.1,0.9-0.9,0.9h-11.4c-0.7,0-1-0.4-1-1L115.3,107L115.3,107L115.3,107z M114.5,89.8
		c0-4.9,3.3-7.7,7.5-7.7c4.5,0,7.5,3.1,7.5,7.7c0,5-3.2,7.7-7.6,7.7C117.6,97.6,114.5,94.8,114.5,89.8z M81.5,132
		c-2.1-8.4-6.9-26.8-8.7-35.6h-0.1c-1.5,8.9-5.4,23.9-8.5,35.6H81.5z M61.1,144.2L55.3,167c-0.1,0.6-0.4,0.8-1.1,0.8H43.4
		c-0.7,0-0.9-0.2-0.7-1.1l20.8-75.3c0.4-1.4,0.6-2.6,0.7-6.3c0-0.5,0.2-0.8,0.6-0.8h15.4c0.5,0,0.7,0.2,0.9,0.8l23.3,81.8
		c0.1,0.6,0,1-0.6,1H91.7c-0.6,0-1-0.2-1.1-0.7l-6-22.8H61.1L61.1,144.2z"/>
</g>
</svg>
