<?xml version="1.0" encoding="utf-8"?>
<!-- Generator: Adobe Illustrator 21.0.0, SVG Export Plug-In . SVG Version: 6.00 Build 0)  -->
<svg version="1.1" id="Layer_1" xmlns="http://www.w3.org/2000/svg" xmlns:xlink="http://www.w3.org/1999/xlink" x="0px" y="0px"
	 viewBox="0 0 176 265" style="enable-background:new 0 0 176 265;" xml:space="preserve">
<style type="text/css">
	.st0{fill:#DADADA;}
</style>
<path class="st0" d="M103.9,71.4c-3.1-0.6-6.3-0.9-9.4-1.3c-4,0-8,0-11.9,0c-4.2,0.7-8.5,1.1-12.7,2C35.7,79.3,8.6,107,2.1,141.3
	c-0.6,3.4-1.1,6.9-1.6,10.4c0,4.1,0,8.2,0,12.3c0.6,4,1,8,1.9,11.9c8.4,34.7,29.7,57.4,64,66.8C115,256,165,224.5,174.8,175.3
	C184.5,126.9,152.5,80,103.9,71.4z M118.6,174.6c-3.6,14.7-7.3,29.4-11,44.1c-0.1,0.2-0.2,0.5-0.4,0.9
	c-27.5-27.8-54.9-55.5-82.3-83.1c2.1-0.5,4.7-1.2,7.3-1.8c12.1-3,24.3-6,36.4-9.1c1.3-0.3,2.2-0.2,3.2,0.8c2.4,2.5,5,4.9,7.9,7.8
	c-11.5,2.9-22.3,5.6-33.4,8.4c0.5,0.7,0.8,1.2,1.2,1.5c5.4,5.4,10.9,10.9,16.3,16.3c1.2,1.3,2.4,1.4,4.1,1
	c5.8-1.5,11.6-2.8,17.4-4.2c0.6-0.1,1.1-0.2,2-0.3c-1.1,4.5-2.2,8.9-3.3,13.2c-0.6,2.2-1.3,4.3-1.7,6.5c-0.2,0.8,0.1,2.1,0.6,2.6
	c5.6,5.7,11.3,11.4,17,17.1c0.3,0.3,0.7,0.5,1.4,1c2.8-11.1,5.5-21.9,8.3-32.9c0.6,0.4,1,0.7,1.4,1c2.4,2.3,4.7,4.6,7,7.1
	C118.3,172.9,118.7,173.9,118.6,174.6z M123.7,155.6c-3.3-3.3-6.4-6.2-9.3-9.3c-0.4-0.4-0.3-1.5-0.1-2.2c1.3-5.5,2.6-10.9,4-16.4
	c0.2-0.7,0.3-1.4,0.5-2.4c-3.8,0.9-7.4,1.6-11,2.5c-2.9,0.7-5.8,1.3-8.7,1.9c-0.5,0.1-1.3,0.1-1.6-0.2c-3-2.9-5.9-5.9-9.1-9
	c15.8-3.9,31.2-7.8,47.1-11.8C131.5,124.3,127.7,139.8,123.7,155.6z"/>
<g>
	<path class="st0" d="M33.2,44.5H20.9v8h13.8v6.2H13.3V25.2H34v6.2H20.9v7h12.3L33.2,44.5L33.2,44.5z"/>
	<path class="st0" d="M39.6,42.2c0-3-0.1-5.6-0.2-7.8h6.4l0.3,3.3h0.1c1-1.5,3.2-3.8,7.4-3.8c3.1,0,5.6,1.6,6.7,4.1h0.1
		c0.9-1.2,2-2.2,3.1-2.9c1.3-0.8,2.8-1.2,4.6-1.2c4.7,0,8.2,3.3,8.2,10.5v14.3H69V45.5c0-3.5-1.1-5.6-3.6-5.6c-1.7,0-3,1.2-3.5,2.6
		c-0.2,0.5-0.3,1.3-0.3,1.9v14.2h-7.4V45.1c0-3.1-1.1-5.2-3.5-5.2c-1.9,0-3.1,1.5-3.5,2.7C47,43.2,47,43.9,47,44.5v14.2h-7.4V42.2z"
		/>
	<path class="st0" d="M82.4,42.2c0-3-0.1-5.6-0.2-7.8h6.4l0.3,3.3h0.1c1-1.5,3.2-3.8,7.4-3.8c3.1,0,5.6,1.6,6.7,4.1h0.1
		c0.9-1.2,2-2.2,3.1-2.9c1.3-0.8,2.8-1.2,4.6-1.2c4.7,0,8.2,3.3,8.2,10.5v14.3h-7.4V45.5c0-3.5-1.1-5.6-3.6-5.6
		c-1.7,0-3,1.2-3.5,2.6c-0.2,0.5-0.3,1.3-0.3,1.9v14.2h-7.4V45.1c0-3.1-1.1-5.2-3.5-5.2c-1.9,0-3.1,1.5-3.5,2.7
		c-0.2,0.6-0.3,1.3-0.3,1.9v14.2h-7.4L82.4,42.2L82.4,42.2z"/>
	<path class="st0" d="M131,49c0.2,3.1,3.3,4.6,6.9,4.6c2.6,0,4.7-0.3,6.7-1l1,5.1c-2.5,1-5.5,1.5-8.8,1.5c-8.3,0-13-4.8-13-12.4
		c0-6.2,3.8-13,12.3-13c7.9,0,10.8,6.1,10.8,12.1c0,1.3-0.1,2.4-0.2,3L131,49L131,49z M139.9,43.8c0-1.8-0.8-4.9-4.3-4.9
		c-3.2,0-4.5,2.9-4.7,4.9H139.9z"/>
	<path class="st0" d="M159.9,27.4v7h5.4V40h-5.4v8.8c0,2.9,0.7,4.3,3,4.3c0.9,0,1.7-0.1,2.2-0.2l0,5.7c-1,0.4-2.8,0.6-4.9,0.6
		c-2.4,0-4.5-0.8-5.7-2.1c-1.4-1.4-2.1-3.8-2.1-7.2V40h-3.2v-5.6h3.2v-5.3L159.9,27.4z"/>
</g>
</svg>
