<?xml version="1.0" encoding="utf-8"?>
<!-- Generator: Adobe Illustrator 17.0.0, SVG Export Plug-In . SVG Version: 6.00 Build 0)  -->
<!DOCTYPE svg PUBLIC "-//W3C//DTD SVG 1.1//EN" "http://www.w3.org/Graphics/SVG/1.1/DTD/svg11.dtd">
<svg version="1.1" id="Layer_1" xmlns="http://www.w3.org/2000/svg" xmlns:xlink="http://www.w3.org/1999/xlink" x="0px" y="0px"
	 width="176px" height="265px" viewBox="202.659 147.737 176 265" enable-background="new 202.659 147.737 176 265"
	 xml:space="preserve">
<g id="Layer_1_1_">
</g>
<g>
	<g id="Layer_2">
		<g>
			<path fill="#DADADA" d="M273.184,275.482c2.314,2.915,4.762,6.969,4.762,12.796c0,14.06-11.199,22.293-27.415,22.293
				c-4.122,0-7.856-0.505-10.171-1.138l-4.25,6.712l12.614,0.758c22.271,1.397,35.396,2.031,35.396,18.873
				c0,14.571-12.997,22.801-35.396,22.801c-23.297,0-32.18-5.828-32.18-15.833c0-5.703,2.575-8.736,7.08-12.923
				c-4.25-1.768-5.664-4.933-5.664-8.354c0-2.789,1.414-5.322,3.735-7.73c2.317-2.404,4.891-4.815,7.98-7.6
				c-6.306-3.04-11.07-9.627-11.07-19.003c0-14.566,9.783-24.569,29.475-24.569c5.535,0,8.885,0.502,11.846,1.266h25.102v10.764
				L273.184,275.482z M235.082,333.249c-1.675,2.024-3.347,4.175-3.347,6.713c0,5.063,6.562,6.587,15.575,6.587
				c7.466,0,17.636-0.514,17.636-7.346c0-4.06-4.892-4.311-11.074-4.693L235.082,333.249z M249.241,275.1
				c-7.081,0-12.356,3.422-12.356,11.658c0,6.205,3.477,10.513,11.975,10.513c7.203,0,12.097-4.177,12.097-10.769
				C260.956,279.03,256.578,275.1,249.241,275.1z"/>
			<path fill="#DADADA" d="M291.066,328.589v-10.002l6.567-0.884c1.803-0.257,2.059-0.634,2.059-2.539v-37.241
				c0-1.391-0.384-2.281-1.676-2.658l-6.95-2.409l1.416-10.257h26.648v52.565c0,2.03,0.126,2.282,2.061,2.539l6.565,0.884v10.002
				L291.066,328.589L291.066,328.589z M307.675,252.464c-7.339,0-11.585-4.184-11.585-11.407c0-7.214,4.247-11.144,11.585-11.144
				c7.466,0,11.714,3.93,11.714,11.144C319.389,248.28,315.141,252.464,307.675,252.464z"/>
			<path fill="#DADADA" d="M378.659,323.678c-5.536,2.657-13.645,5.064-20.986,5.064c-15.318,0-21.108-6.074-21.108-20.395v-33.186
				c0-0.758,0-1.267-1.033-1.267h-9.01v-11.274c11.331-1.27,15.833-6.845,17.249-20.651h12.231v17.993c0,0.883,0,1.266,1.031,1.266
				h18.148v12.665h-19.179v30.273c0,7.474,1.804,10.385,8.752,10.385c3.608,0,7.338-0.884,10.427-2.025L378.659,323.678z"/>
		</g>
	</g>
	<g id="Layer_3">
		<g>
			<path fill="#DADADA" d="M297.088,307.259c0.395,0.395,0.756,0.811,1.09,1.242v-30.578c0-1.034-0.208-1.094-0.586-1.205
				l-0.072-0.023l-3.87-1.342l-0.001,29.446C294.888,305.412,296.056,306.23,297.088,307.259z"/>
			<path fill="#DADADA" d="M275.999,276.789c1.771,2.723,3.461,6.482,3.461,11.488c0,14.462-11.355,23.807-28.929,23.807
				c-3.395,0-6.838-0.339-9.474-0.922l-2.296,3.626l10.054,0.604l0.734,0.046c10.539,0.66,19.343,1.211,25.616,3.666
				c-0.86-4.147,0.316-8.629,3.534-11.846c1.256-1.254,2.707-2.202,4.257-2.837v-28.153L275.999,276.789z"/>
			<path fill="#DADADA" d="M238.398,286.757c0,5.971,3.52,8.999,10.461,8.999c6.429,0,10.583-3.633,10.583-9.255
				c0-8.172-5.548-9.887-10.202-9.887C244.294,276.613,238.398,278.373,238.398,286.757z"/>
			<path fill="#DADADA" d="M263.433,339.203c0-2.33-2.843-2.759-9.323-3.161l6.91,6.91
				C262.514,342.091,263.433,340.888,263.433,339.203z"/>
			<polygon fill="#DADADA" points="293.651,261.085 296.097,261.085 293.651,258.638 			"/>
			<path fill="#DADADA" d="M335.051,275.408h-0.151c0.051,0.104,0.103,0.209,0.151,0.314V275.408z"/>
			<path fill="#DADADA" d="M289.552,330.103v-0.752c-1.586,0.203-3.201,0.117-4.759-0.264c0.555,1.919,0.842,4.132,0.842,6.69
				c0,7.674-3.456,13.946-9.995,18.139c-0.737,0.473-1.514,0.916-2.322,1.334l6.632,6.632c4.266,4.267,11.184,4.267,15.455,0
				l31.779-31.778H289.552L289.552,330.103z"/>
			<path fill="#DADADA" d="M227.088,306.44c-6.3-3.914-9.997-10.972-9.997-19.306c0-16.332,11.585-26.083,30.989-26.083
				c4.912,0,8.527,0.379,12.036,1.267h22.841v-4.486c-1.55-0.634-3-1.575-4.257-2.837c-3.848-3.844-4.774-9.491-2.801-14.216
				l-19.238-19.242l-50.801,50.799c-4.268,4.271-4.268,11.191,0,15.459l19.885,19.884
				C226.175,307.279,226.618,306.871,227.088,306.44z"/>
			<path fill="#DADADA" d="M357.516,275.408v24.364l11.634-11.634c3.444-3.445,4.107-8.619,1.992-12.73H357.516z"/>
			<path fill="#DADADA" d="M337.089,320.198c-1.382-3.142-2.038-7.069-2.038-11.851v-21.815c-0.627,1.373-1.504,2.659-2.635,3.789
				c-3.2,3.201-7.648,4.383-11.773,3.553v21.289c0,0.196,0,0.637,0.025,0.919c0.139,0.031,0.363,0.071,0.721,0.119l7.879,1.061
				v10.755L337.089,320.198z"/>
			<path fill="#DADADA" d="M295.628,235.347c1.85-4.431,6.07-6.947,12.047-6.947c8.407,0,13.228,4.613,13.228,12.658
				c0,8.09-4.945,12.92-13.228,12.92c-1.441,0-2.778-0.152-4.006-0.442l7.549,7.549h9.426v7.314
				c1.438-0.291,2.914-0.337,4.365-0.139v-6.992l1.345-0.151c9.546-1.07,13.739-5.168,15.454-15.779l-46.748-46.745
				c-4.264-4.267-11.184-4.267-15.453,0l-15.384,15.386l19.515,19.516C287.693,232.158,292.153,232.77,295.628,235.347z"/>
		</g>
	</g>
</g>
</svg>
