<?xml version="1.0" encoding="utf-8"?>
<!-- Generator: Adobe Illustrator 21.0.0, SVG Export Plug-In . SVG Version: 6.00 Build 0)  -->
<svg version="1.1" id="Layer_1" xmlns="http://www.w3.org/2000/svg" xmlns:xlink="http://www.w3.org/1999/xlink" x="0px" y="0px"
	 viewBox="0 0 176 265" style="enable-background:new 0 0 176 265;" xml:space="preserve">
<style type="text/css">
	.st0{fill:#DADADA;}
</style>
<g>
	<g id="Layer_2">
		<g>
			<path class="st0" d="M70.6,128.1c2.3,2.9,4.8,7,4.8,12.8c0,14.1-11.2,22.3-27.4,22.3c-4.1,0-7.9-0.5-10.2-1.1l-4.3,6.7l12.6,0.8
				c22.3,1.4,35.4,2,35.4,18.9c0,14.6-13,22.8-35.4,22.8c-23.3,0-32.2-5.8-32.2-15.8c0-5.7,2.6-8.7,7.1-12.9
				c-4.3-1.8-5.7-4.9-5.7-8.4c0-2.8,1.4-5.3,3.7-7.7c2.3-2.4,4.9-4.8,8-7.6c-6.3-3-11.1-9.6-11.1-19c0-14.6,9.8-24.6,29.5-24.6
				c5.5,0,8.9,0.5,11.8,1.3h25.1v10.8L70.6,128.1z M32.5,185.8c-1.7,2-3.3,4.2-3.3,6.7c0,5.1,6.6,6.6,15.6,6.6
				c7.5,0,17.6-0.5,17.6-7.3c0-4.1-4.9-4.3-11.1-4.7L32.5,185.8z M46.6,127.7c-7.1,0-12.4,3.4-12.4,11.7c0,6.2,3.5,10.5,12,10.5
				c7.2,0,12.1-4.2,12.1-10.8C58.4,131.6,54,127.7,46.6,127.7z"/>
			<path class="st0" d="M88.5,181.2v-10l6.6-0.9c1.8-0.3,2.1-0.6,2.1-2.5v-37.2c0-1.4-0.4-2.3-1.7-2.7l-7-2.4l1.4-10.3h26.6v52.6
				c0,2,0.1,2.3,2.1,2.5l6.6,0.9v10H88.5L88.5,181.2z M105.1,105.1c-7.3,0-11.6-4.2-11.6-11.4c0-7.2,4.2-11.1,11.6-11.1
				c7.5,0,11.7,3.9,11.7,11.1C116.8,100.9,112.5,105.1,105.1,105.1z"/>
			<path class="st0" d="M176.1,176.3c-5.5,2.7-13.6,5.1-21,5.1c-15.3,0-21.1-6.1-21.1-20.4v-33.2c0-0.8,0-1.3-1-1.3h-9v-11.3
				c11.3-1.3,15.8-6.8,17.2-20.7h12.2v18c0,0.9,0,1.3,1,1.3h18.1v12.7h-19.1v30.3c0,7.5,1.8,10.4,8.8,10.4c3.6,0,7.3-0.9,10.4-2
				L176.1,176.3z"/>
		</g>
	</g>
	<g id="Layer_3">
		<g>
			<path class="st0" d="M94.5,159.9c0.4,0.4,0.8,0.8,1.1,1.2v-30.6c0-1-0.2-1.1-0.6-1.2h-0.1L91,128v29.4
				C92.3,158,93.5,158.8,94.5,159.9z"/>
			<path class="st0" d="M73.4,129.4c1.8,2.7,3.5,6.5,3.5,11.5c0,14.5-11.4,23.8-28.9,23.8c-3.4,0-6.8-0.3-9.5-0.9l-2.3,3.6l10.1,0.6
				H47c10.5,0.7,19.3,1.2,25.6,3.7c-0.9-4.1,0.3-8.6,3.5-11.8c1.3-1.3,2.7-2.2,4.3-2.8v-28.2L73.4,129.4z"/>
			<path class="st0" d="M35.8,139.4c0,6,3.5,9,10.5,9c6.4,0,10.6-3.6,10.6-9.3c0-8.2-5.5-9.9-10.2-9.9
				C41.7,129.2,35.8,131,35.8,139.4z"/>
			<path class="st0" d="M60.8,191.8c0-2.3-2.8-2.8-9.3-3.2l6.9,6.9C59.9,194.7,60.8,193.5,60.8,191.8z"/>
			<polygon class="st0" points="91.1,113.7 93.5,113.7 91.1,111.2 			"/>
			<path class="st0" d="M132.5,128h-0.2c0.1,0.1,0.1,0.2,0.2,0.3V128z"/>
			<path class="st0" d="M87,182.7v-0.8c-1.6,0.2-3.2,0.1-4.8-0.3c0.6,1.9,0.8,4.1,0.8,6.7c0,7.7-3.5,13.9-10,18.1
				c-0.7,0.5-1.5,0.9-2.3,1.3l6.6,6.6c4.3,4.3,11.2,4.3,15.5,0l31.8-31.8L87,182.7L87,182.7z"/>
			<path class="st0" d="M24.5,159c-6.3-3.9-10-11-10-19.3c0-16.3,11.6-26.1,31-26.1c4.9,0,8.5,0.4,12,1.3h22.8v-4.5
				c-1.5-0.6-3-1.6-4.3-2.8c-3.8-3.8-4.8-9.5-2.8-14.2L54,74.2L3.2,125c-4.3,4.3-4.3,11.2,0,15.5l19.9,19.9
				C23.6,159.9,24,159.5,24.5,159z"/>
			<path class="st0" d="M154.9,128v24.4l11.6-11.6c3.4-3.4,4.1-8.6,2-12.7L154.9,128L154.9,128z"/>
			<path class="st0" d="M134.5,172.8c-1.4-3.1-2-7.1-2-11.9v-21.8c-0.6,1.4-1.5,2.7-2.6,3.8c-3.2,3.2-7.6,4.4-11.8,3.6v21.3
				c0,0.2,0,0.6,0,0.9c0.1,0,0.4,0.1,0.7,0.1l7.9,1.1v10.7L134.5,172.8z"/>
			<path class="st0" d="M93,87.9c1.9-4.4,6.1-6.9,12-6.9c8.4,0,13.2,4.6,13.2,12.7s-4.9,12.9-13.2,12.9c-1.4,0-2.8-0.2-4-0.4
				l7.5,7.5h9.4v7.3c1.4-0.3,2.9-0.3,4.4-0.1v-7l1.3-0.2c9.5-1.1,13.7-5.2,15.5-15.8L92.4,51.2c-4.3-4.3-11.2-4.3-15.5,0L61.5,66.6
				L81,86.1C85.1,84.8,89.6,85.4,93,87.9z"/>
		</g>
	</g>
</g>
</svg>
