<?xml version="1.0" encoding="utf-8"?>
<!-- Generator: Adobe Illustrator 19.0.0, SVG Export Plug-In . SVG Version: 6.00 Build 0)  -->
<svg version="1.1" xmlns="http://www.w3.org/2000/svg" xmlns:xlink="http://www.w3.org/1999/xlink" x="0px" y="0px"
	 viewBox="-350.7 116 255.5 319.6" style="enable-background:new -350.7 116 255.5 319.6;" xml:space="preserve">
<style type="text/css">
	.st0{fill:#DADADA;}
	.st1{display:none;}
	.st2{display:inline;}
	.st3{fill:#FFFFFF;}
	.st4{display:inline;fill:#FFFFFF;}
</style>
<g id="Layer_1">
	<g>
		<polygon class="st0" points="-150.2,210.7 -103.9,136.6 -221.8,136.6 -235.1,158 		"/>
		<path class="st0" d="M-319.8,116v117.9l27.3,15.9l136.6-31.8L-319.8,116z"/>
		<polygon class="st0" points="-148.2,232 -201.4,316.6 -127,363.1 -127,245.3 		"/>
		<path class="st0" d="M-293.1,258.7l-49,77.1h117.9l68.9-109.4L-293.1,258.7z"/>
	</g>
	<path class="st0" d="M-350.7,426.7h6.9l3.4-41.9h-7v-8.1h18.8l12.9,32.7c1,2.9,1.4,4.8,1.4,4.8h0.2c0,0,0.4-2,1.5-4.8l12.8-32.7
		h18.8v8.1h-6.9l3.3,41.9h6.9v8h-23.7v-8h6.4l-2.1-29.2c-0.2-2,0.2-5.4,0.2-5.4h-0.2c0,0-0.7,3.2-1.4,5.1l-11.1,26.7h-9.1
		l-11.1-26.7c-0.7-2-1.3-5.1-1.3-5.1h-0.3c0,0,0.4,3.3,0.2,5.4l-2.1,29.2h6.5v8h-23.8L-350.7,426.7L-350.7,426.7z M-243.8,375.8
		c17.1,0,30,13,30,29.5c0,17.1-12.9,30.3-30,30.3c-17.1,0-30-13.3-30-30.3C-273.8,388.7-260.9,375.8-243.8,375.8z M-243.8,426.2
		c10.4,0,19-9.1,19-21c0-11.4-8.6-20.2-19-20.2c-10.4,0-19,8.7-19,20.2C-262.8,417.2-254.2,426.2-243.8,426.2z M-208.4,426.7h6.9
		v-41.9h-6.9v-8.1h25c4.7,0,8.3,0.2,12.1,1.4c11.3,3.3,18.8,13.3,18.8,27.6c0,13.7-6.9,23.6-17.9,27.2c-3.9,1.4-8,1.7-12.8,1.7
		h-25.1V426.7z M-183.8,426.1c3.7,0,6.6-0.3,9.5-1.5c6.6-2.7,10.8-9.5,10.8-18.9c0-9.8-4.4-16.5-11.2-19.1c-2.9-1.1-5.6-1.3-9.1-1.3
		h-7v40.8H-183.8L-183.8,426.1z M-146.4,426.7h5.1l14.6-21.4l-14.2-20.5h-5.1v-8.1h21.9v8.1h-5.7l8,12c1.1,1.3,1.6,2.4,1.6,2.4h0.2
		c0,0.1,0.6-1.1,1.6-2.4l7.7-12h-5.5v-8.1h21v8.1h-5.1l-14.7,21.3l14.4,20.6h5.1v8h-21.9v-8h5.7l-8.1-12.2c-1.1-1.4-1.6-2.5-1.6-2.5
		h-0.2c-0.2,0-0.7,1.1-1.5,2.5l-7.7,12.2h5.6v8h-21.2L-146.4,426.7z"/>
</g>
<g id="Layer_3" class="st1">
	<g class="st2">
		<path class="st3" d="M-243.8,295.1c5.7,0,10.5-4.1,12.2-9.9l-21.8,5.1C-251,293.2-247.6,295.1-243.8,295.1z"/>
		<path class="st3" d="M-207.5,265.6h-3.3c0.8,1.8,1.4,3.7,1.9,5.6l1.3-0.3V265.6z"/>
		<path class="st3" d="M-176.6,293.9c4.4-1.8,7-6.7,7-13.4c0-3.8-0.8-6.9-2.3-9.3l-13,3v20.7h1
			C-180.5,294.9-178.4,294.6-176.6,293.9z"/>
		<path class="st3" d="M-243.8,265.9c-7.3,0-13,6.2-13,14.2c0,0.8,0.1,1.5,0.2,2.2l25.4-5.9C-232.7,270.3-237.6,265.9-243.8,265.9z"
			/>
		<path class="st3" d="M-279.8,280.1c0-5.2,1.1-10.1,3-14.5h-4.7l1.8,22.1l0.7-0.2C-279.5,285.2-279.8,282.7-279.8,280.1z"/>
		<path class="st3" d="M-207.5,295.5v-15.9l-0.3,0.1c0,0.2,0,0.3,0,0.5c0,5.5-1.2,10.7-3.3,15.4H-207.5z"/>
		<path class="st3" d="M-214.4,315.5v-14c-6.5,9.1-17.1,15-29.3,15c-11.4,0-21.5-5.1-28-13.3v12.3h-31.3l-39,61.3h117.9l38.6-61.3
			H-214.4z"/>
		<path class="st3" d="M-152.4,315.5l0-14.2c-3.8,5.6-9.3,9.9-16.1,12.2c-2,0.7-4,1.2-6,1.5l-26.9,42.7l74.4,46.5v-88.6H-152.4z"/>
		<path class="st3" d="M-134.8,281.3l-12.3-7.7c0.4,2.2,0.6,4.5,0.6,6.9c0,5.5-1,10.5-2.8,15h4.9L-134.8,281.3z"/>
		<polygon class="st3" points="-152,245.5 -146.4,245.5 -103.9,177.5 -221.8,177.5 -235.1,198.9 -152,250.6 		"/>
		<path class="st3" d="M-314.2,271.7l10.2-26.1h28.9v16.7c6.2-10.7,17.7-17.7,31.3-17.7c12.2,0,22.9,5.7,29.3,14.7v-13.7h31
			c2.3,0,4.4,0.1,6.4,0.2l-142.8-88.8v100.6L-314.2,271.7z"/>
	</g>
	<path class="st4" d="M-350.7,301.5h6.9l3.4-41.9h-7v-8.1h18.8l12.9,32.7c1,2.9,1.4,4.8,1.4,4.8h0.2c0,0,0.4-2,1.5-4.8l12.8-32.7
		h18.8v8.1h-6.9l3.3,41.9h6.9v8h-23.7v-8h6.4l-2.1-29.2c-0.2-2,0.2-5.4,0.2-5.4h-0.2c0,0-0.7,3.2-1.4,5.1l-11.1,26.7h-9.1
		l-11.1-26.7c-0.7-2-1.3-5.1-1.3-5.1h-0.3c0,0,0.4,3.3,0.2,5.4l-2.1,29.2h6.5v8h-23.8L-350.7,301.5L-350.7,301.5z M-243.8,250.6
		c17.1,0,30,13,30,29.5c0,17.1-12.9,30.3-30,30.3c-17.1,0-30-13.3-30-30.3C-273.8,263.5-260.9,250.6-243.8,250.6z M-243.8,301.1
		c10.4,0,19-9.1,19-21c0-11.4-8.6-20.2-19-20.2c-10.4,0-19,8.7-19,20.2C-262.8,292-254.2,301.1-243.8,301.1z M-208.4,301.5h6.9
		v-41.9h-6.9v-8.1h25c4.7,0,8.3,0.2,12.1,1.4c11.3,3.3,18.8,13.3,18.8,27.6c0,13.7-6.9,23.6-17.9,27.2c-3.9,1.4-8,1.7-12.8,1.7
		h-25.1V301.5z M-183.8,300.9c3.7,0,6.6-0.3,9.5-1.5c6.6-2.7,10.8-9.5,10.8-18.9c0-9.8-4.4-16.5-11.2-19.1c-2.9-1.1-5.6-1.3-9.1-1.3
		h-7v40.8H-183.8L-183.8,300.9z M-146.4,301.5h5.1l14.6-21.4l-14.2-20.5h-5.1v-8.1h21.9v8.1h-5.7l8,12c1.1,1.3,1.6,2.4,1.6,2.4h0.2
		c0,0.1,0.6-1.1,1.6-2.4l7.7-12h-5.5v-8.1h21v8.1h-5.1l-14.7,21.3l14.4,20.6h5.1v8h-21.9v-8h5.7l-8.1-12.2c-1.1-1.4-1.6-2.5-1.6-2.5
		h-0.2c-0.2,0-0.7,1.1-1.5,2.5l-7.7,12.2h5.6v8h-21.2L-146.4,301.5z"/>
</g>
</svg>
