<?xml version="1.0" encoding="utf-8"?>
<!-- Generator: Adobe Illustrator 21.0.0, SVG Export Plug-In . SVG Version: 6.00 Build 0)  -->
<svg version="1.1" id="Layer_1" xmlns="http://www.w3.org/2000/svg" xmlns:xlink="http://www.w3.org/1999/xlink" x="0px" y="0px"
	 viewBox="0 0 176 265" style="enable-background:new 0 0 176 265;" xml:space="preserve">
<style type="text/css">
	.st0{fill:#DADADA;}
</style>
<path class="st0" d="M7.5,54h161.4v157H7.5V54z M0.1,218.3h176.1V46.7H0.1V218.3z M118.8,117.1c-5.8,0-7.8,2.9-7.8,5.4
	c0,2.6,1.3,4.5,9.1,8.5c11.5,5.6,15.1,10.9,15.1,18.8c0,11.7-9,18-21.1,18c-6.4,0-11.9-1.3-15-3.2c-0.5-0.2-0.6-0.6-0.6-1.2v-10.8
	c0-0.7,0.4-1,0.9-0.6c4.6,3,9.9,4.3,14.7,4.3c5.8,0,8.2-2.4,8.2-5.7c0-2.6-1.7-5-9.1-8.8c-10.4-5-14.7-10.1-14.7-18.5
	c0-9.5,7.4-17.3,20.2-17.3c6.3,0,10.7,1,13.1,2.1c0.6,0.4,0.7,1,0.7,1.5v10.1c0,0.6-0.4,1-1.1,0.7
	C128.4,118.3,123.6,117.1,118.8,117.1L118.8,117.1z M55.7,125.8c1.7,0.1,3,0.1,5.9,0.1c8.6,0,16.7-3,16.7-14.7c0-9.3-5.8-14-15.6-14
	c-2.9,0-5.7,0.1-7,0.2V125.8z M42.7,86.9c0-0.5,1-0.9,1.6-0.9c4.7-0.2,11.7-0.4,18.9-0.4c20.3,0,28.2,11.2,28.2,25.4
	c0,18.6-13.5,26.6-30.1,26.6c-2.8,0-3.7-0.1-5.7-0.1v28.2c0,0.6-0.2,0.9-0.9,0.9H43.6c-0.6,0-0.9-0.2-0.9-0.9L42.7,86.9L42.7,86.9z"
	/>
</svg>
