<?xml version="1.0" encoding="utf-8"?>
<!-- Generator: Adobe Illustrator 19.0.0, SVG Export Plug-In . SVG Version: 6.00 Build 0)  -->
<svg version="1.1" id="Layer_1" xmlns="http://www.w3.org/2000/svg" xmlns:xlink="http://www.w3.org/1999/xlink" x="0px" y="0px"
	 viewBox="-391 148 175.9 265" style="enable-background:new -391 148 175.9 265;" xml:space="preserve">
<style type="text/css">
	.st0{fill-rule:evenodd;clip-rule:evenodd;fill:#DADADA;}
</style>
<g>
	<g>
		<path class="st0" d="M-271.9,254.6c-1.6,0.6-2.5,2-3.3,3.4c-1.8,3.1-2.2,7.1-0.6,10.3c0.4,0.9,1.2,1.8,2.3,1.9
			c1.2,0,2.2-0.7,3-1.5c1.8-1.7,2.6-4.2,2.8-6.6c0.3-2.3-0.1-4.7-1.4-6.6C-269.7,254.6-270.9,254.3-271.9,254.6z"/>
		<path class="st0" d="M-256.5,247.8c0.1-2.5-1-5-2.9-6.6c-1.6-1.5-3.8-2.3-6-2.2c-25.2,0-50.5,0-75.7,0c-3.4,0-6.6,2.2-7.8,5.3
			c-0.6,1.3-0.7,2.8-0.7,4.2c0,9.5,0,19,0,28.4c0,4.4,3.8,8.3,8.2,8.4c12.1,0.1,24.2,0,36.4,0.1c5.5,3,10.9,6.1,16.4,9.1
			c-1.2-3.1-2.5-6.1-3.7-9.1c9.2,0,18.4,0,27.6,0c4.4-0.1,8.2-4,8.2-8.4C-256.5,267.1-256.5,257.4-256.5,247.8z M-311.5,277.4
			c0.1,1.4-0.6,3.1-2.1,3.5c-1.4,0.3-2.7-0.6-3.6-1.6c-4.1-4.4-6.5-10.2-8.1-15.9c-1.7,3.4-3.4,6.7-5.1,10.1
			c-1.2,2.3-2.4,4.6-4.2,6.4c-0.8,0.8-2.1,1.5-3.1,0.7c-1.5-1.3-1.9-3.4-2.5-5.2c-2.4-8.4-3.8-17-5.2-25.7c-0.3-1.4,0.3-3.2,1.7-3.7
			c1.2-0.4,2.6-0.5,3.6,0.4c0.7,0.6,0.9,1.6,1,2.4c1,6.7,2.2,13.3,3.8,19.9c2.8-5.2,5.5-10.5,8.2-15.7c0.4-0.8,0.9-1.5,1.6-2
			c1-0.6,2.5-0.6,3.3,0.3c0.7,0.7,0.9,1.8,1.1,2.7c0.8,4.3,1.9,8.6,3.5,12.7c0.7-6.2,1.5-12.4,3.8-18.3c0.5-1.2,1-2.4,1.8-3.4
			c1.4-1.5,4.1-1,5.1,0.7c0.6,0.9,0.6,2.1,0.2,3c-1.9,3.8-2.8,8.1-3.5,12.3C-311,266.3-311.8,271.8-311.5,277.4z M-287.6,270.1
			c-1.1,2.1-2.6,4.2-4.7,5.4c-3.1,1.9-7.2,1.6-10.2-0.3c-2.4-1.6-3.7-4.4-4.3-7.2c-1.1-6.3,0.8-13.2,5.5-17.6c1.4-1.2,3.1-2,4.8-2.2
			c3-0.4,6.2,0.6,8.2,2.9c1.6,1.9,2.6,4.3,2.9,6.7C-284.8,262-285.5,266.4-287.6,270.1z M-263.6,270c-1.2,2.2-2.7,4.3-4.8,5.5
			c-3,1.8-6.9,1.6-9.8-0.1c-2-1.2-3.3-3.2-4.1-5.4c-2.1-6.5-0.3-14.2,4.5-19.2c1.4-1.4,3.3-2.4,5.3-2.6c2.9-0.4,6.1,0.5,8.1,2.7
			c1.8,2,2.8,4.6,3.1,7.2C-261,262.2-261.7,266.4-263.6,270z"/>
		<path class="st0" d="M-295.8,254.6c-1.4,0.5-2.3,1.8-3.1,3c-1.9,3.1-2.5,7.2-0.9,10.5c0.4,0.9,1.1,1.8,2.1,2
			c1.1,0.2,2.1-0.4,2.9-1.1c1.8-1.5,2.6-3.8,3.1-6c0.5-2.5,0.2-5.3-1.3-7.5C-293.6,254.7-294.7,254.3-295.8,254.6z"/>
	</g>
	<path class="st0" d="M-381.1,295.2c2.5-0.6,5.2-0.5,7.7,0.1c0,2.1,0,4.1,0,6.2c-2.1-0.5-4.4-1-6.4,0c-2.4,1.2-3.7,3.9-3.7,6.5
		c-0.1,2.6,0.7,5.5,3,6.9c2.1,1.4,4.8,1.1,7.1,0.4c0,2.1,0,4.1,0,6.2c-3.1,0.9-6.4,0.8-9.4-0.3c-3.6-1.3-6.4-4.4-7.5-8.1
		c-0.8-2.8-0.9-5.8-0.3-8.6C-389.5,299.9-385.7,296.2-381.1,295.2L-381.1,295.2z M-362.5,294.9c3.1-0.3,6.5,0.1,9,2.1
		c2.4,1.9,3.6,4.9,4.1,7.9c0.4,3.2,0.3,6.6-0.7,9.8c-0.9,2.7-2.6,5.1-5.2,6.3c-2.6,1.2-5.7,1.3-8.5,0.7c-2.6-0.6-4.9-2.3-6.1-4.6
		c-1.8-3.1-2.1-6.8-2-10.3c0.1-3,0.9-6.2,3-8.5C-367.3,296.3-365,295.2-362.5,294.9L-362.5,294.9z M-361.6,300.8
		c-1.3,0.3-2.1,1.7-2.4,2.9c-0.7,2.5-0.5,5-0.4,7.6c0.2,1.4,0.3,2.9,1.3,3.9c1.3,1.5,3.9,1.3,5.1-0.2c0.8-1,1-2.2,1.2-3.4
		c0.3-2.1,0.3-4.3,0-6.4c-0.2-1.3-0.6-2.6-1.5-3.6C-359.2,300.8-360.5,300.5-361.6,300.8L-361.6,300.8z M-239.4,295.3
		c2.6-0.7,5.4-0.6,8.1,0c0.1,2.1,0,4.1,0,6.2c-2-0.5-4.3-0.9-6.2-0.1c-2.3,1-3.7,3.5-3.8,5.9c-0.3,2.7,0.5,5.9,2.9,7.5
		c2.1,1.5,4.9,1.2,7.2,0.5c0,2.1,0.1,4.2,0,6.2c-3.3,0.8-6.8,0.7-9.9-0.6c-3.4-1.5-6.1-4.6-7-8.1c-0.8-2.7-0.8-5.7-0.1-8.5
		C-247.3,300-243.7,296.4-239.4,295.3L-239.4,295.3z M-345.3,295.5c2.9,0,5.9,0,8.8,0c1.1,4.8,2.1,9.6,3,14.4
		c0.8-4.8,2-9.6,3.1-14.4c3,0,6,0,9.1,0c1.2,8.6,2.3,17.3,3.5,25.9c-2.3,0-4.6,0-6.9,0c-0.6-5.9-1.2-11.9-1.9-17.8
		c-1.4,5.9-2.9,11.8-4.3,17.8c-1.6,0-3.2,0-4.7,0c-1.5-5.9-3-11.9-4.5-17.8c-0.6,5.9-1.2,11.9-1.8,17.8c-2.2,0-4.4,0-6.6,0
		C-347.5,312.8-346.4,304.2-345.3,295.5L-345.3,295.5z M-313.6,295.5c2.9,0,5.9,0,8.8,0c1.1,4.8,2.1,9.6,3,14.4
		c0.9-4.8,2-9.6,3.1-14.4c3,0,6,0,9,0c1.2,8.6,2.3,17.3,3.5,25.9c-2.3,0-4.6,0-6.9,0c-0.6-5.9-1.2-11.9-1.9-17.8
		c-1.4,5.9-2.9,11.9-4.3,17.8c-1.6,0-3.1,0-4.7,0c-1.5-5.9-3-11.9-4.5-17.8c-0.6,5.9-1.2,11.9-1.8,17.8c-2.2,0-4.4,0-6.6,0
		C-315.8,312.8-314.7,304.2-313.6,295.5L-313.6,295.5z M-284.2,295.6c4.7-0.1,9.5,0,14.2,0c0,1.8,0,3.7,0,5.5c-2.4,0-4.8,0-7.2,0
		c0,1.6,0,3.2,0,4.7c2.1,0,4.1,0,6.2,0c0,1.8,0,3.6,0,5.4c-2.1,0-4.1,0-6.2,0c0,1.6,0,3.2,0,4.7c2.4,0,4.8,0,7.2,0
		c0,1.8,0,3.7,0,5.5c-4.7,0-9.5,0-14.2,0C-284.2,312.9-284.1,304.2-284.2,295.6L-284.2,295.6z M-267.9,295.5c3,0,5.9,0,8.9,0
		c2.8,0.1,5.8,0.8,7.8,2.8c1.9,1.8,2.5,4.6,1.8,7c-0.6,2-2.1,3.6-3.9,4.5c1.9,3.9,3.7,7.8,5.6,11.7c-2.5,0-4.9,0-7.4,0
		c-1.9-4-3.8-8-5.8-11.9c0,4,0,8,0,11.9c-2.3,0-4.7,0-7,0C-267.9,312.8-267.9,304.2-267.9,295.5L-267.9,295.5z M-261,300.5
		c0,2.1,0,4.1,0,6.2c1.3-0.1,2.6-0.1,3.7-0.9c1.2-0.9,1.1-2.8,0.3-4C-257.9,300.6-259.6,300.6-261,300.5L-261,300.5z M-229.3,295.5
		c4.7,0,9.4,0,14.2,0c0,1.8,0,3.7,0,5.5c-2.4,0-4.8,0-7.2,0c0,1.6,0,3.2,0,4.7c2.1,0,4.1,0,6.2,0c0,1.8,0,3.6,0,5.4
		c-2.1,0-4.1,0-6.2,0c0,1.6,0,3.2,0,4.7c2.4,0,4.8,0,7.2,0c0,1.8,0,3.7,0,5.5c-4.7,0-9.5,0-14.2,0
		C-229.3,312.8-229.3,304.2-229.3,295.5L-229.3,295.5z"/>
</g>
</svg>
