<?xml version="1.0" encoding="utf-8"?>
<!-- Generator: Adobe Illustrator 21.0.0, SVG Export Plug-In . SVG Version: 6.00 Build 0)  -->
<svg version="1.1" id="Layer_1" xmlns="http://www.w3.org/2000/svg" xmlns:xlink="http://www.w3.org/1999/xlink" x="0px" y="0px"
	 viewBox="0 0 176 265" style="enable-background:new 0 0 176 265;" xml:space="preserve">
<style type="text/css">
	.st0{display:none;}
	.st1{display:inline;fill:#B2B3B3;}
	.st2{fill:#DBDADA;}
	.st3{fill:#E5E5E5;}
	.st4{fill:#E8EAEA;}
	.st5{fill:#22313F;}
	.st6{fill:#C1C1C0;}
	.st7{fill:#828282;}
	.st8{fill:#9D9D9D;}
	.st9{fill:#FFFFFF;}
	.st10{fill:#5C5B5D;}
</style>
<g id="Layer_3" class="st0">
	<path class="st1" d="M362.8,364.1c0,18.4-122.6,33.3-273.9,33.3s-273.9-14.9-273.9-33.3c0-18.4,143.9-33.3,273.9-33.3
		C243.7,330.8,362.8,345.7,362.8,364.1z"/>
</g>
<g id="Layer_2">
</g>
<g>
	<path class="st2" d="M24.2,79.3h75.8l-3,27.7H47l-1.8,32c5.9-8.1,13.9-12.1,24.2-12.1c10.1,0,19,3.7,26.6,11.1
		c7.6,7.4,11.5,19.2,11.5,35.3c0,16.5-4.4,28.9-13.2,37.3c-8.8,8.4-20.2,12.6-34.4,12.6c-13.1,0-23.9-3.6-32.4-10.9
		c-8.4-7.3-13.3-17-14.5-29.2l28.3-4.7c1.6,12.9,7.7,19.4,18.4,19.4c11.7,0,17.5-7.6,17.5-22.9c0-6.8-1.6-12.3-4.7-16.5
		c-3.1-4.2-7.6-6.3-13.4-6.3c-7.6,0-12.8,3.7-15.5,11l-24.5-4.7L24.2,79.3z"/>
</g>
<g>
	<g>
		<path class="st2" d="M163.1,175.5c-1.5,0-3.1-0.7-4.3-6.1s-2.9-10.8-2.9-10.8c1.9,0,2.9-0.8,2.9-0.8c-1.3-0.6-4.1-2.6-5.9-5
			s-6.6-6.4-6.6-6.4s0-2.6,0-7.9c0-5.4,3.4-9.6,3.4-9.6c-2.3,0-3.4,2.1-3.4,2.1s0-0.1,0-11.3s5.6-16.2,5.6-16.2
			c-1.7-0.1-2.9,0.7-2.9,0.7c0.8-8.3,3.3-10.7,3.3-10.7c-9.3-2.4-14.5,3-14.5,3c-1-5,3.1-7.9,3.1-7.9c-4.8-1-8.7,0.3-8.7,0.3
			c0-7.3,2.9-9.8,2.9-9.8c-14.6,0-22.8,10.9-22.8,10.9c-0.6-4.7,0.7-8.7,0.7-8.7C98.8,87.3,95,100.5,95,100.5c-0.9-2.2-1-7.2-1-7.2
			s-5.8,9.8-6.9,16.5c-1,6.8,0.9,26.2,0.9,26.2s-0.9-1.2-2.9-1.4c0,0,2.1,2.3,2.1,7.6c0,0-0.8-0.7-2.2-0.3c0,0,2.2,2,2.4,5.4
			c0,0-2.6,1.7-4,3.5c0,0-2.2,0.1-3.4,0.5c0,0,1.9,1,2.2,2c0,0-5.5,5.6-8.3,10.1c0,0,2.4-1.5,4.2-1c0,0-3.8,4.7-5.1,12.3
			c0,0,1.9-0.9,2.7-0.5c0,0-2.3,4.9-2.4,10l-2.6,1.5l2,1.4c0,0-1.5,6.3-1.9,9.9c0,0,1.2-1.2,2.1-1.5c0,0,1.3,3,3,5.4
			c1.7,2.3,5.7,4.3,8,4.3l4.4-0.2c-0.5,2.3-1.6,4.3-3.9,4.4l-0.3,0.4c0,0-0.1,0-0.1,0c0,0.7-1.4,0.8-1.8,1.3c-1.2,1.4-2,3.4-2.6,5.2
			c-0.4,1.3-0.2,1.3-0.5,2.6c-0.1,0.4-0.5,0.9-0.7,1.3c1.3-0.4,4.7-0.7,6.6-0.8l0,1.6c0,0,0.3,0.3,0.8,0.5c0,0,0,0,0.1,0
			c0.2,0,0.3,0,0.5,0.1c2.8-0.2,4.7,0.2,7.9,0c0.6-0.1,1.2-0.2,1.7-0.5c0.2-0.5,0.2-0.5,0.2-1.1c0-0.1,0-0.2,0-0.3c0,0,0.1,0,0.1,0
			c0,0,0,0,0.1,0c0,0,0,0,0,0c0.1,0,0.1,0,0.2,0c0,0,0.1,0,0.1,0c0.6-0.1,1.5-0.1,2.1-0.1c1.9,0,4.4,0.2,4.4,0.2
			c0.2-2.1,0.3-5.4,3.7-14.9l0.8-0.5c0,0,10.5,3.7,20.2-0.1c0.8,1.9,3.3,8.2,3.6,12.3c0.3,0.5,0.3,1.1,0.3,1.7
			c0,0.5,0.1,1.1,0.1,1.6c0.3,0,1.6-0.2,3.2-0.2c0.6,0,1.5,0.1,2.1,0.1c0,0,0.1,0,0.1,0c0.1,0,0.1,0,0.2,0c0,0,0,0,0,0
			c0.1,0,0.1,0,0.1,0c0,0,0.1,0,0.1,0c0,0.1,0,0.2,0,0.3c0.1,0.6,0.1,0.6,0.2,1.1c0,0,0.1,0.1,0.2,0.1c1.7-0.2,3.5-0.3,5.3-0.2
			c1.4,0.1,2.7,0.3,4.1,0.6c0,0,0,0,0,0c0.1,0,0.3,0,0.4,0c0.7,0.1,1.5,0.3,2.2,0.3c0-0.9,0-1.7,0-2.4c1.5,0.1,3.6,0.4,4.5,0.5
			c0.4,0.1,0.6,0.1,0.9,0.2c0,0,0.1,0,0.1,0c0,0,0,0,0,0c0.3,0.1,0.6,0.2,1.1,0.3c-0.1-0.8-0.1-0.8-0.2-1.8c-0.1-0.8-0.6-3.1-1.7-4
			c0,0,1.1,0.5,1.5,0.7c-1.1-1.5-1.6-3.6-5.1-5.1c0,0,0.6-0.3,1.2-0.4c-0.6-0.4-1.1-0.5-1.7-0.5c0.2-0.6,1.1-2.1,1.9-2.3
			c0,0-0.5-0.3-1.2-0.1c-0.3,0.1-0.6,0.3-0.8,0.5c-0.1,0.1-0.3,0-0.3-0.1c-0.2-0.9-0.4-1.8-0.5-2.7c7-0.3,7.9-3.8,7.9-3.8
			c0.6,0.5,0.6,1.5,0.6,1.5c3-4,2.7-7.9,2.7-7.9c0.7,0.1,1.3,0.6,1.3,0.6c0.3-6.1-1.5-16.4-1.5-16.4c0.9,0.5,1.5-0.1,1.5-0.1
			c-1-0.5-1.2-1.6-1.2-1.6C162.8,176.9,163.1,175.5,163.1,175.5z"/>
	</g>
	<path class="st3" d="M96.4,219.4c0,0,0.3-2.9-0.7-5.1c0,0,1.8,0.1,2.1,4.9C97.9,219.3,96.6,219.4,96.4,219.4z"/>
	<path class="st3" d="M87.3,209.5L87.3,209.5C87.3,209.5,87.3,209.5,87.3,209.5z"/>
	<path class="st3" d="M89,219.2C89,219.2,89,219.2,89,219.2C89,219.2,89,219.2,89,219.2L89,219.2z"/>
	<path class="st4" d="M112.2,90.1c-0.6-4.7,0.7-8.7,0.7-8.7C98.8,87.3,95,100.5,95,100.5c-0.9-2.2-1-7.2-1-7.2s-5.8,9.8-6.9,16.5
		c-1,6.8,0.9,26.2,0.9,26.2s-0.9-1.2-2.9-1.4c0,0,2.1,2.3,2.1,7.6c0,0-0.8-0.7-2.2-0.3c0,0,2.2,2,2.4,5.4c0,0-2.6,1.7-4,3.5
		c0,0-2.2,0.1-3.4,0.5c0,0,1.9,1,2.2,2c0,0-5.5,5.6-8.3,10.1c0,0,2.4-1.5,4.2-1c0,0-3.8,4.7-5.1,12.3c0,0,1.9-0.9,2.7-0.5
		c0,0-2.3,4.9-2.4,10l-2.6,1.5l2,1.4c0,0-1.5,6.3-1.9,9.9c0,0,1.2-1.2,2.1-1.5c0,0,1.3,3,3,5.4c1.7,2.3,5.7,4.3,8,4.3l0.3,0
		c-0.1,0.8-0.3,1.6-0.5,2.4c0,0.1-0.2,0.2-0.3,0.1c-0.3-0.2-0.5-0.4-0.8-0.5c-0.8-0.3-1.2,0.1-1.2,0.1c0.8,0.2,1.7,1.7,1.9,2.3
		c-0.6,0-1.1,0.1-1.7,0.5c0.6,0.1,1.2,0.4,1.2,0.4c-3.5,1.5-4,3.6-5.1,5.1c0.3-0.2,1.5-0.7,1.5-0.7c-1,1-1.6,3.3-1.7,4
		c-0.1,1-0.1,1-0.2,1.8c0.9-0.3,1.4-0.4,2.1-0.5c1.1-0.2,4.4-0.6,5.5-0.5l-0.2,2.3c0,0,0,0,0.1,0c0.6-0.2,1.1-0.1,1.6-0.2
		c0-0.6,0-1.2,0.1-1.9c0-1.1,0.1-2,0.3-3.1c0,0,0-0.1,0-0.1c0.4-1.5,1.2-2.3,1.7-2.8c0.2-0.2,0.3-0.4,0.4-0.6
		c0.3-0.4,0.6-0.9,0.8-1.5c0.5-1.3,0.3-4.2-0.7-7c1,1.5,1.9,2.7,2.4,3.2l0-3.6c0,0,1.9,1.9,3.5,3.3c0.8,0.7,1.8,1.5,2.5,1.9
		c0.1,0,0.1-0.5,0.2,0.1l0,0c0,0,0,0,0,0c0.9,0.5,1.9,1,2.8,1.6c0.1,0.1,0.2,0.1,0.3,0.2c0.4,0.3,1.2,0.6,1.8,1l0.6,7.4
		c0.6-7.8,5-15.3,5-15.3l-0.2,0c-1.4-0.4-11.5-3.9-17.4-16.4c-0.4-0.8,2.2,0.9,2.2,0.9c-2.4-5.9-3.4-15.5-3.4-15.5
		c0.8,0.7,1.6,0.8,1.6,0.8c-1.7-4.9-2.4-11-2.4-16.4c-0.5-29.5,10.4-36.2,10.4-36.2c-1.9-0.7-3.8-0.6-3.8-0.6
		c2.2-5.2,9.3-12.4,9.3-12.4c-1.9,0.1-9.4,2.2-9.4,2.2c6.2-16.3,12.5-20.6,12.5-20.6c-0.5,3.9,1,8,1,8C122.4,81.2,133.3,82,133.3,82
		c0.8-1.7,1.7-2.8,1.7-2.8C120.4,79.1,112.2,90.1,112.2,90.1z"/>
	<path class="st3" d="M150.3,219.3c0,0-0.1-4.2-1.1-6.3c0,0,2.5,1.5,2.5,6.4C151.7,219.4,150.5,219.4,150.3,219.3z"/>
	<path class="st5" d="M85.2,197.6c1.6-16.2,2.1-47.8,2.1-47.8c-3.6,7.1-6.5,19.9-6.5,19.9l0.7,2.8l-1.6-0.7
		c-2.5,8.8-0.8,20.5-0.3,23.8C81.3,197,83.2,197.4,85.2,197.6z"/>
	<path class="st5" d="M81.8,197.3c0.5,2.6,1,5.1,1.6,7.6c0.4,0.1,0.9,0,0.9,0c0.4-1.6,0.5-4,0.8-7C84,197.9,82.9,197.7,81.8,197.3z"
		/>
	<path class="st3" d="M136.6,211.2c-0.1,0-0.2,0-0.2-0.1c-0.2,0-0.3,0.1-0.4,0.1l0,0c2.4-1.7,2.6-3.6,2.6-3.6
		c-1.6,0.7-3.3,1-4.1,1.1c5.6-4.8,6.5-13.8,6.5-13.8c-2.3,2.8-5.5,5.2-8,6.7l0,0c0,0-1.7,0.9-3.2,1.7c-0.1,0-0.1,0-0.2,0.1
		c-0.8,0.4-1.5,0.7-2,0.7c0,0,1.3,2.4,1.8,3.7l-0.1,0.1c0,0,1.9,4.4,2.5,8.7c0.1,0.7,0.1,1.4,0.2,1.8c0,0.6,0.1,1.1,0.1,1.1
		c2.5-0.4,5.9,0,5.9,0c0,0.4,0.2,1.4,0.2,1.5c1.2-0.2,2.3-0.2,3.5-0.2C141.8,216.6,141.6,209.7,136.6,211.2z"/>
	<path class="st2" d="M85.1,198.9c-3.9-0.6-7.4-5.1-7.4-5.1c2.8,3,6.3,3.4,6.3,3.4c0.5-3.4-2.4-11.2-2.4-11.2
		c2.1,2.6,3.2,5.6,3.9,8.1L85.1,198.9z"/>
	<path class="st6" d="M93.8,192.8c0,0,3,5.4,5.7,7.7c2.9,2.5,5.5,6,6.7,8.2c0,0,1.4-3.3,2.2-4.5C108.4,204.1,99.9,201.6,93.8,192.8z
		"/>
	<path class="st6" d="M133.4,203.3c0.4-0.6,0.9-1.1,1.4-1.7c0.8-0.9,1.6-1.8,2.3-2.8c-1.1,0.8-2.3,1.5-3.6,2.3
		c-3.6,2.5-6.1,3.1-6.1,3.1c0.8,1.2,2.2,4.5,2.2,4.5c0.7-1.3,1.9-3.1,3.5-4.9C133.2,203.6,133.3,203.4,133.4,203.3z"/>
	<path class="st7" d="M92.7,113.1c-0.3,0-1.4,0.1-1.4,0.1c-9.6,0.7-16.7-6.8-16.7-6.8s-0.6,5.8,3.5,10.9c4.2,5.1,12.6,6,12.6,6
		c0.3,1.2-0.3,3.8-0.3,3.8s2.5-2.7,3.1-7.9C94,115.6,92.9,113.1,92.7,113.1"/>
	<path class="st8" d="M92.7,113.1c-0.3,0-1.4,0.1-1.4,0.1c-9.6,0.7-16.7-6.8-16.7-6.8s4.4,12.7,19,11.7
		C93.6,118.1,94.1,115.8,92.7,113.1"/>
	<path class="st7" d="M140.6,113.1c0.3,0,1.4,0.1,1.4,0.1c9.6,0.7,16.7-6.8,16.7-6.8s0.6,5.8-3.5,10.9c-4.2,5.1-12.6,6-12.6,6
		c-0.3,1.2,0.3,3.8,0.3,3.8s-2.5-2.7-3.1-7.9C139.3,115.6,140.4,113.1,140.6,113.1"/>
	<path class="st8" d="M140.6,113.1c0.3,0,1.4,0.1,1.4,0.1c9.6,0.7,16.7-6.8,16.7-6.8s-4.4,12.7-19,11.7
		C139.6,118.1,139.2,115.8,140.6,113.1"/>
	<path class="st3" d="M87.4,156.1c0,0-6.8,24.8,0,40.7V156.1z"/>
	<path class="st3" d="M156.4,195.4c-3.4,2.6-7,2.8-7,2.8c-0.2-3.4,3.6-10.8,3.6-10.8c-0.8,0.5-1.5,1.1-2.1,1.8l0-2.5l2.7-2.2
		l-2.2-1.7l2.7-11l-2.6,1.7c0,0-0.8-15.7-0.2-22.4c0,0-3.3-3.3-5-4.7c0,0,0.3,4.8,0.7,12.5c1.5,6.2,3.8,19,0.9,30.2
		c0,2.3,0.1,4.6,0.1,6.9c0,0,1.4,5,1.9,8.5c0,0,0.5,0.1,1.2,0l-0.1-5.4C154.6,198.1,156.4,195.4,156.4,195.4z"/>
	<ellipse class="st3" cx="127.9" cy="147.4" rx="3.8" ry="4.8"/>
	<ellipse class="st9" cx="127.9" cy="146.1" rx="3.7" ry="4.7"/>
	<path class="st5" d="M126.9,143.6c0,0.1,0,0.2,0,0.4c0,0.7,0.4,1.2,1,1.2c0.5,0,0.9-0.4,0.9-1c0.3,0.4,0.5,0.9,0.5,1.5
		c0,1.2-0.8,2.2-1.8,2.2c-1,0-1.8-1-1.8-2.2C125.7,144.8,126.2,143.9,126.9,143.6z"/>
	<ellipse class="st3" cx="109.7" cy="147.4" rx="3.8" ry="4.8"/>
	<ellipse class="st9" cx="109.8" cy="146.1" rx="3.7" ry="4.7"/>
	<path class="st5" d="M109.5,143.6c0,0.1,0,0.2,0,0.4c0,0.7,0.4,1.2,1,1.2c0.5,0,0.9-0.4,0.9-1c0.3,0.4,0.5,0.9,0.5,1.5
		c0,1.2-0.8,2.2-1.8,2.2c-1,0-1.8-1-1.8-2.2C108.3,144.8,108.8,143.9,109.5,143.6z"/>
	<path class="st5" d="M140.7,141.6c-1.7-0.2-4.6-0.5-8.2-0.3c-4.6,0.2-8.5,0.9-10.9,1.3c-0.7,0.1-1.3,0.2-1.7,0.3l-0.5,0.1
		c-0.5,0.1-0.9,0.1-1.1,0.1c-0.3,0-0.6-0.1-1.1-0.1l-0.5-0.1c-0.4-0.1-1-0.1-1.7-0.3c-2.4-0.4-6.3-1-10.9-1.3
		c-3.5-0.2-6.5,0.1-8.2,0.3c0,0-1.8,0.2-3.3,0.9l0.3,2c0,0,1.6-0.4,3.2-0.6c0.3,2.8,0.9,6.3,0.9,6.3l0,0.1c0,0.2,0.1,0.4,0.1,0.5
		c0.3,1.4,0.7,2.2,2,2.7c1.3,0.5,4.3,0.9,7.4,1.1c1.1,0.1,2.4,0,3.7-0.2c1.9-0.3,3.7-0.8,4.4-1.3c1-0.7,1.5-2.5,1.8-3.7l0.1-0.4
		c0.1-0.4,0.2-0.8,0.3-1.3c0.1-0.6,0.3-1.2,0.4-1.4c0,0,0.1-0.2,0.6-0.2c0.1,0,0.3,0,0.4,0c0.2,0,0.3,0,0.4,0
		c0.4,0.1,0.5,0.2,0.6,0.2c0.1,0.2,0.3,0.8,0.4,1.4c0.1,0.4,0.2,0.8,0.3,1.3l0.1,0.4c0.3,1.2,0.9,3,1.8,3.7c0.7,0.5,2.4,1,4.4,1.3
		c1.3,0.2,2.6,0.3,3.7,0.2c3.1-0.2,6.1-0.6,7.4-1.1c1.3-0.5,1.6-1.3,2-2.7c0-0.2,0.1-0.4,0.1-0.5l0-0.1c0,0,0.6-3.5,0.9-6.3
		c1.6,0.2,3.2,0.6,3.2,0.6l0.3-2C142.5,141.8,140.7,141.6,140.7,141.6z M115.3,145.9L115.3,145.9c-0.1,0.7-0.5,3.9-1.2,5
		c-0.7,1.1-0.9,1.3-2.9,1.7c-0.1,0-0.2,0-0.3,0c-2.2,0.3-6.2,0.4-8.5-0.1l-0.2,0c-2.3-0.4-3.1-0.6-3.3-1.3c-0.3-1-0.9-5.4-1-6.4
		c0-0.7,0.6-1.1,0.8-1.1c0.1,0,0.3-0.1,0.6-0.1c1.6-0.2,5.1-0.5,6.8-0.4c2.1,0.1,7.3,0.8,8.4,1.3
		C115.4,144.8,115.4,145.2,115.3,145.9z M137.7,151.1c-0.2,0.7-1,0.9-3.3,1.3l-0.2,0c-2.3,0.4-6.3,0.4-8.5,0.1c-0.1,0-0.2,0-0.3,0
		c-2-0.3-2.3-0.6-2.9-1.7c-0.7-1.1-1.1-4.3-1.2-5l0,0c-0.1-0.7-0.1-1,0.7-1.4c1.2-0.5,6.3-1.2,8.4-1.3c1.7-0.1,5.2,0.2,6.8,0.4
		c0.3,0,0.4,0.1,0.6,0.1c0.2,0,0.9,0.4,0.8,1.1C138.7,145.7,138.1,150.1,137.7,151.1z"/>
	<path class="st5" d="M110.9,136.6c0,0-4.2-2-6.6,1.7c0,0-0.2-3.7,3.2-4.1C110.8,133.8,110.9,136.6,110.9,136.6z"/>
	<path class="st5" d="M109.3,131.2c0,0-3.9-1.8-5.7,1.7c0,0-0.6-3.1,2.2-3.8C108.6,128.3,109.3,131.2,109.3,131.2z"/>
	<path class="st5" d="M126,138.9c0,0,3.3-1.6,5.1,1.3c0,0,0.2-2.9-2.4-3.2C126,136.7,126,138.9,126,138.9z"/>
	<path class="st5" d="M128.3,133.8c0,0,3.3-0.5,3.9,2.5c0,0,1.1-2.2-0.8-3.3C129.4,131.7,128.3,133.8,128.3,133.8z"/>
	<path class="st5" d="M110.6,166c0,0,2.3-1.6,3.7-1.8c0,0,0.3,2.9,1.7,4.4c0,0,2.9-2.6,5.8-2.8c0,0,0.7,1.6,2,2.2l0,0
		c0.4,0.3,1,0.5,1.5,0.7c0,0,1.7-1,2.1-2.8c0,0,0.2,3.9-2.3,6c0,0-1.9-0.9-3.2-2.4c-0.4-0.4-0.8-0.8-1-1.2c0,0-4.3,3-4.4,4.8
		c0,0-3.1-3-4.2-5.3c0,0-2.1,0.7-2.6,1.1c0,0-1.7-2.7-2-5.2C107.6,163.6,109.6,165.5,110.6,166z"/>
	<path class="st10" d="M118.4,158.4c-0.2,0,4.4,0.3,8.8,0.2c0,0,0.2-0.8,0.6-1.3c0,0-0.1,1.4,0.3,1.7c0,0-2.2,0.9-4.5,0.9
		c0,0,2.4-0.4,3.3-0.8C126.9,159,122.4,159.3,118.4,158.4z"/>
</g>
<g>
	<path class="st2" d="M0,43h14.4v4.4h-9v5.4h8.4V57H5.3v9.5H0V43z"/>
	<path class="st2" d="M34.2,57.8c0,6.3-4.4,9.1-9,9.1c-5,0-8.8-3.3-8.8-8.8c0-5.5,3.6-9,9.1-9C30.7,49.1,34.2,52.6,34.2,57.8z
		 M21.8,58c0,2.9,1.2,5.1,3.5,5.1c2.1,0,3.4-2.1,3.4-5.1c0-2.5-1-5.1-3.4-5.1C22.8,52.8,21.8,55.4,21.8,58z"/>
	<path class="st2" d="M53.6,61c0,2.2,0.1,4.1,0.1,5.5h-4.6l-0.2-2.4h-0.1c-0.7,1-2.3,2.8-5.3,2.8c-3.5,0-6-2.2-6-7.4v-10h5.3v9.2
		c0,2.5,0.8,4,2.7,4c1.5,0,2.3-1,2.7-1.9c0.1-0.3,0.2-0.7,0.2-1.2V49.4h5.3L53.6,61L53.6,61z"/>
	<path class="st2" d="M57.8,54.9c0-2.1-0.1-3.9-0.1-5.4h4.6l0.2,2.3h0.1c0.7-1.1,2.4-2.7,5.3-2.7c3.5,0,6.1,2.3,6.1,7.3v10.1h-5.3
		V57c0-2.2-0.8-3.7-2.7-3.7c-1.5,0-2.3,1-2.7,2c-0.1,0.3-0.2,0.8-0.2,1.3v9.8h-5.3L57.8,54.9L57.8,54.9z"/>
	<path class="st2" d="M94.8,41.7v19.7c0,1.9,0.1,3.9,0.1,5.1h-4.7L90,64H90c-1.1,1.9-3.1,2.9-5.3,2.9c-4,0-7.3-3.5-7.3-8.8
		c0-5.8,3.6-9.1,7.6-9.1c2.1,0,3.7,0.7,4.5,1.9h0.1v-9.3H94.8z M89.5,56.7c0-0.3,0-0.7-0.1-0.9c-0.3-1.4-1.5-2.6-3.1-2.6
		c-2.4,0-3.7,2.2-3.7,4.9c0,2.9,1.4,4.7,3.6,4.7c1.5,0,2.8-1,3.1-2.5c0.1-0.4,0.1-0.8,0.1-1.2L89.5,56.7L89.5,56.7z"/>
	<path class="st2" d="M108.8,66.5l-0.3-1.7h-0.1c-1.1,1.4-2.9,2.1-4.9,2.1c-3.5,0-5.5-2.5-5.5-5.2c0-4.4,4-6.6,10-6.5v-0.2
		c0-0.9-0.5-2.2-3.1-2.2c-1.7,0-3.6,0.6-4.7,1.3l-1-3.4c1.2-0.7,3.5-1.5,6.6-1.5c5.7,0,7.5,3.4,7.5,7.4v5.9c0,1.6,0.1,3.2,0.2,4.2
		L108.8,66.5L108.8,66.5z M108.2,58.4c-2.8,0-5,0.6-5,2.7c0,1.4,0.9,2,2.1,2c1.3,0,2.4-0.9,2.8-2c0.1-0.3,0.1-0.6,0.1-0.9
		L108.2,58.4L108.2,58.4z"/>
	<path class="st2" d="M123.2,44.5v4.9h3.8v3.9h-3.8v6.2c0,2.1,0.5,3,2.1,3c0.7,0,1.2-0.1,1.6-0.1l0,4c-0.7,0.3-2,0.5-3.5,0.5
		c-1.7,0-3.1-0.6-4-1.5c-1-1-1.5-2.7-1.5-5.1v-7h-2.3v-3.9h2.3v-3.7L123.2,44.5z"/>
	<path class="st2" d="M135.6,44.7c0,1.5-1.1,2.7-2.9,2.7c-1.7,0-2.8-1.2-2.8-2.7c0-1.5,1.1-2.7,2.8-2.7S135.5,43.1,135.6,44.7z
		 M130.1,66.5V49.4h5.3v17.1H130.1z"/>
	<path class="st2" d="M156.5,57.8c0,6.3-4.4,9.1-9,9.1c-5,0-8.8-3.3-8.8-8.8c0-5.5,3.6-9,9.1-9C153,49.1,156.5,52.6,156.5,57.8z
		 M144.2,58c0,2.9,1.2,5.1,3.5,5.1c2.1,0,3.4-2.1,3.4-5.1c0-2.5-1-5.1-3.4-5.1C145.1,52.8,144.2,55.4,144.2,58z"/>
	<path class="st2" d="M159.8,54.9c0-2.1-0.1-3.9-0.1-5.4h4.6l0.2,2.3h0.1c0.7-1.1,2.4-2.7,5.3-2.7c3.5,0,6.1,2.3,6.1,7.3v10.1h-5.3
		V57c0-2.2-0.8-3.7-2.7-3.7c-1.5,0-2.3,1-2.7,2c-0.1,0.3-0.2,0.8-0.2,1.3v9.8h-5.3L159.8,54.9L159.8,54.9z"/>
</g>
</svg>
