<?xml version="1.0" encoding="utf-8"?>
<!-- Generator: Adobe Illustrator 17.0.0, SVG Export Plug-In . SVG Version: 6.00 Build 0)  -->
<!DOCTYPE svg PUBLIC "-//W3C//DTD SVG 1.1//EN" "http://www.w3.org/Graphics/SVG/1.1/DTD/svg11.dtd">
<svg version="1.1" xmlns="http://www.w3.org/2000/svg" xmlns:xlink="http://www.w3.org/1999/xlink" x="0px" y="0px"
	 width="843.209px" height="115.052px" viewBox="0 0 843.209 115.052" enable-background="new 0 0 843.209 115.052"
	 xml:space="preserve">
<g id="Layer_1">
</g>
<g id="Layer_2">
	<g>
		<path fill="#DADADA" d="M0,88.273V30.251C0,11.53,12.894,0,27.771,0c17.605,0,28.64,13.142,28.64,27.895
			c0,15.249-10.662,27.648-24.424,27.648H16.241v-10.91H28.64c9.174,0,16.117-6.323,16.117-16.737
			c0-10.539-7.314-16.985-16.861-16.985c-9.299,0-16.241,6.819-16.241,17.853v59.51H0z"/>
		<path fill="#DADADA" d="M91.499,27.523c16.489,0,30.871,12.646,30.871,30.995s-14.382,30.995-30.871,30.995
			c-16.49,0-30.871-12.646-30.871-30.995S75.01,27.523,91.499,27.523z"/>
		<path fill="#DADADA" d="M131.424,28.763h10.414v6.819h0.248c3.719-5.827,8.802-8.058,16.117-8.058h2.48v10.414h-1.612
			c-10.538,0-16.737,6.447-16.737,22.564v27.771h-10.91V28.763z"/>
		<path fill="#DADADA" d="M199.986,39.177h-21.325V70.42c0,5.579,2.604,7.439,8.183,7.439h13.142v10.414h-14.63
			c-11.158,0-17.605-7.439-17.605-19.216V13.885h10.91v14.878h21.325V39.177z"/>
		<path fill="#DADADA" d="M210.028,88.273V1.487h10.91v86.785H210.028z"/>
		<path fill="#DADADA" d="M282.307,88.273V54.799c0-11.158-9.423-16.861-19.341-16.861c-12.026,0-19.588,9.546-19.588,20.829
			c0,11.034,8.058,20.332,19.465,20.332c6.199,0,11.282-3.472,15.001-8.183V83.81c-4.339,3.223-8.554,5.703-16.117,5.703
			c-17.109,0-29.259-14.133-29.259-31.615c0-16.985,11.654-30.374,30.747-30.374c18.349,0,30.003,11.158,30.003,28.267v32.483
			H282.307z"/>
		<path fill="#DADADA" d="M303.758,88.273V53.558c0-15.621,10.91-26.035,25.416-26.035c14.506,0,25.416,10.414,25.416,26.035v34.714
			h-10.91V53.558c0-9.174-6.695-15.621-14.506-15.621s-14.505,6.447-14.505,15.621v34.714H303.758z"/>
		<path fill="#DADADA" d="M413.234,1.487v32.949c-9.999-5.759-15.492-6.914-21.201-6.914c-15.249,0-28.639,12.893-28.639,29.507
			c0,17.605,11.406,32.483,30.747,32.483c17.481,0,30.003-13.142,30.003-32.73V1.487H413.234z"/>
		<path fill="#DADADA" d="M470.888,88.273V26.779C470.888,12.77,482.419,0,498.412,0c16.613,0,28.143,9.05,28.143,24.3
			c0,7.686-2.727,13.761-8.679,17.481c8.804,5.083,12.646,11.53,12.646,21.944c0,15.002-11.034,24.548-26.034,24.548h-17.481v-10.91
			h14.505c12.397,0,17.357-5.207,17.357-14.257c0-9.423-6.323-14.258-17.357-14.258h-14.505v-10.91h12.15
			c10.538,0,15.746-6.075,15.746-13.142c0-9.174-7.191-13.886-15.498-13.886c-10.785,0-16.861,6.695-16.861,16.861v60.501H470.888z"
			/>
		<path fill="#DADADA" d="M585.572,88.273V54.799c0-11.158-9.423-16.861-19.34-16.861c-12.027,0-19.589,9.546-19.589,20.829
			c0,11.034,8.058,20.332,19.464,20.332c6.199,0,11.283-3.472,15.002-8.183V83.81c-4.339,3.223-8.555,5.703-16.117,5.703
			c-17.11,0-29.259-14.133-29.259-31.615c0-16.985,11.654-30.374,30.747-30.374c18.349,0,30.003,11.158,30.003,28.267v32.483
			H585.572z"/>
		<path fill="#DADADA" d="M640.993,39.177h-21.325V70.42c0,5.579,2.603,7.439,8.182,7.439h13.142v10.414h-14.63
			c-11.158,0-17.605-7.439-17.605-19.216V13.885h10.911v14.878h21.325V39.177z"/>
		<path fill="#DADADA" d="M682.28,39.177h-21.325V70.42c0,5.579,2.603,7.439,8.182,7.439h13.142v10.414h-14.63
			c-11.158,0-17.605-7.439-17.605-19.216V13.885h10.911v14.878h21.325V39.177z"/>
		<path fill="#DADADA" d="M707.2,68.684l-4.462-8.679l29.383-16.365c-3.72-3.72-6.819-5.703-13.514-5.703
			c-11.283,0-19.465,8.43-19.465,20.581s8.182,20.581,19.465,20.581c12.893,0,17.729-7.686,19.96-18.597l11.034,1.363
			c-1.24,15.746-13.886,27.648-30.995,27.648c-16.49,0-30.871-12.646-30.871-30.995s14.381-30.995,30.871-30.995
			c13.885,0,23.184,7.314,28.763,18.844L707.2,68.684z"/>
		<path fill="#DADADA" d="M758.406,28.763h10.414v6.819h0.248c3.72-5.827,8.802-8.058,16.118-8.058h2.479v10.414h-1.612
			c-10.539,0-16.737,6.447-16.737,22.564v27.771h-10.91V28.763z"/>
		<path fill="#DADADA" d="M804.528,28.763v35.706c0,8.183,4.71,14.63,13.885,14.63s13.886-6.447,13.886-14.63V28.763h10.909v35.83
			c0,13.638-6.694,21.573-19.34,24.92v25.54h-10.911v-25.54c-12.646-3.347-19.34-11.282-19.34-24.92v-35.83H804.528z"/>
		<polygon fill="#22313F" points="119.041,53.068 97,53.068 97,31.028 85.98,31.028 85.98,53.068 63.939,53.068 63.939,64.089 
			85.98,64.089 85.98,86.129 97,86.129 97,64.089 119.041,64.089 		"/>
		<g>
			<rect x="369.042" y="53.068" fill="#22313F" width="48.234" height="11.021"/>
		</g>
	</g>
</g>
</svg>
