<?xml version="1.0" encoding="utf-8"?>
<!-- Generator: Adobe Illustrator 17.0.0, SVG Export Plug-In . SVG Version: 6.00 Build 0)  -->
<!DOCTYPE svg PUBLIC "-//W3C//DTD SVG 1.1//EN" "http://www.w3.org/Graphics/SVG/1.1/DTD/svg11.dtd">
<svg version="1.1" id="Layer_1" xmlns="http://www.w3.org/2000/svg" xmlns:xlink="http://www.w3.org/1999/xlink" x="0px" y="0px"
	 width="45px" height="45px" viewBox="0 0 45 45" enable-background="new 0 0 45 45" xml:space="preserve">
<path fill="#DADADA" d="M44.589,36.151L44.589,36.151L30.937,22.5L44.589,8.849l0,0c0.148-0.148,0.253-0.319,0.322-0.502
	c0.187-0.501,0.08-1.084-0.322-1.486L38.14,0.411c-0.402-0.402-0.987-0.508-1.486-0.322c-0.183,0.067-0.354,0.174-0.502,0.321l0,0
	L22.5,14.061L8.849,0.41l0,0C8.701,0.264,8.529,0.157,8.346,0.089C7.846-0.098,7.262,0.009,6.86,0.411L0.411,6.86
	C0.009,7.262-0.096,7.847,0.089,8.346c0.069,0.183,0.174,0.354,0.322,0.502l0,0L14.063,22.5L0.411,36.151l0,0
	c-0.146,0.148-0.253,0.319-0.322,0.502c-0.187,0.499-0.08,1.084,0.322,1.486l6.449,6.449c0.402,0.402,0.987,0.508,1.486,0.322
	c0.183-0.069,0.354-0.174,0.502-0.322l0,0L22.5,30.937l13.651,13.651l0,0c0.148,0.148,0.319,0.253,0.502,0.322
	c0.501,0.187,1.084,0.08,1.486-0.322l6.449-6.449c0.402-0.402,0.509-0.987,0.322-1.486C44.842,36.471,44.736,36.299,44.589,36.151z"
	/>
</svg>
