<?xml version="1.0" encoding="utf-8"?>
<!-- Generator: Adobe Illustrator 16.0.3, SVG Export Plug-In . SVG Version: 6.00 Build 0)  -->
<!DOCTYPE svg PUBLIC "-//W3C//DTD SVG 1.1//EN" "http://www.w3.org/Graphics/SVG/1.1/DTD/svg11.dtd">
<svg version="1.1" id="Layer_2" xmlns="http://www.w3.org/2000/svg" xmlns:xlink="http://www.w3.org/1999/xlink" x="0px" y="0px"
	 width="22.536px" height="22.324px" viewBox="0 0 22.536 22.324" enable-background="new 0 0 22.536 22.324" xml:space="preserve">
<g>
	<path fill="#2C3E50" d="M1.417,17.757l6.367-7.053L2.425,4.433C1.921,3.824,1.542,3.302,1.291,2.865s-0.379-0.857-0.379-1.26
		c0-0.412,0.244-0.783,0.729-1.111C2.126,0.164,2.718,0,3.416,0c0.803,0,1.428,0.18,1.875,0.539C5.736,0.895,6.354,1.56,7.144,2.533
		l4.271,5.242l4.559-5.242c0.376-0.441,0.699-0.818,0.961-1.133c0.266-0.314,0.521-0.574,0.77-0.781
		c0.244-0.207,0.521-0.361,0.824-0.463c0.305-0.104,0.656-0.154,1.059-0.154c0.724,0,1.314,0.164,1.775,0.492
		c0.459,0.33,0.688,0.719,0.688,1.172c0,0.656-0.499,1.551-1.493,2.678l-5.611,6.361l6.036,7.053
		c0.546,0.619,0.938,1.132,1.185,1.539c0.248,0.408,0.369,0.793,0.369,1.156c0,0.344-0.107,0.657-0.33,0.941
		c-0.219,0.285-0.529,0.512-0.932,0.678c-0.402,0.168-0.854,0.252-1.357,0.252c-0.545,0-1.006-0.086-1.379-0.259
		c-0.373-0.172-0.681-0.386-0.912-0.642s-0.668-0.75-1.301-1.486l-5.009-5.979L6,20.115c-0.414,0.489-0.709,0.834-0.885,1.029
		c-0.174,0.195-0.385,0.387-0.631,0.574S3.947,22.05,3.611,22.16c-0.337,0.107-0.73,0.162-1.185,0.162
		c-0.699,0-1.278-0.162-1.737-0.486C0.23,21.512,0,21.041,0,20.423C0,19.697,0.473,18.809,1.417,17.757z"/>
</g>
</svg>
