<?xml version="1.0" encoding="utf-8"?>
<!-- Generator: Adobe Illustrator 17.0.0, SVG Export Plug-In . SVG Version: 6.00 Build 0)  -->
<!DOCTYPE svg PUBLIC "-//W3C//DTD SVG 1.1//EN" "http://www.w3.org/Graphics/SVG/1.1/DTD/svg11.dtd">
<svg version="1.1" id="Layer_2" xmlns="http://www.w3.org/2000/svg" xmlns:xlink="http://www.w3.org/1999/xlink" x="0px" y="0px"
	 width="36.759px" height="36.413px" viewBox="237.642 237.624 36.759 36.413"
	 enable-background="new 237.642 237.624 36.759 36.413" xml:space="preserve">
<g opacity="0.75">
	<path fill="#DADADA" d="M239.95,266.588l10.385-11.503l-8.74-10.23c-0.822-0.993-1.442-1.845-1.851-2.559
		c-0.411-0.711-0.618-1.396-0.618-2.054c0-0.672,0.396-1.277,1.187-1.814c0.793-0.537,1.758-0.804,2.897-0.804
		c1.308,0,2.328,0.292,3.057,0.878c0.727,0.582,1.736,1.667,3.024,3.254l6.967,8.55l7.436-8.55c0.613-0.721,1.14-1.336,1.568-1.848
		c0.434-0.514,0.851-0.938,1.254-1.276c0.4-0.336,0.85-0.587,1.346-0.755s1.07-0.251,1.726-0.251c1.181,0,2.145,0.268,2.897,0.804
		c0.749,0.537,1.122,1.173,1.122,1.91c0,1.072-0.814,2.53-2.435,4.37l-9.152,10.376l9.846,11.503
		c0.889,1.011,1.532,1.846,1.933,2.51c0.403,0.665,0.602,1.293,0.602,1.886c0,0.561-0.176,1.073-0.538,1.537
		c-0.359,0.465-0.865,0.833-1.52,1.106c-0.656,0.272-1.391,0.409-2.215,0.409c-0.887,0-1.639-0.14-2.249-0.421
		c-0.608-0.281-1.109-0.63-1.486-1.046c-0.378-0.419-1.09-1.225-2.122-2.426l-8.17-9.753l-8.674,10.041
		c-0.675,0.799-1.155,1.36-1.442,1.68c-0.284,0.32-0.628,0.631-1.029,0.936s-0.876,0.543-1.424,0.719
		c-0.55,0.176-1.192,0.266-1.933,0.266c-1.14,0-2.085-0.266-2.833-0.793c-0.749-0.529-1.124-1.297-1.124-2.305
		C237.639,269.75,238.411,268.304,239.95,266.588z"/>
</g>
</svg>
