<?xml version="1.0" encoding="utf-8"?>
<!-- Generator: Adobe Illustrator 17.0.0, SVG Export Plug-In . SVG Version: 6.00 Build 0)  -->
<!DOCTYPE svg PUBLIC "-//W3C//DTD SVG 1.1//EN" "http://www.w3.org/Graphics/SVG/1.1/DTD/svg11.dtd">
<svg version="1.1" id="Layer_1" xmlns="http://www.w3.org/2000/svg" xmlns:xlink="http://www.w3.org/1999/xlink" x="0px" y="0px"
	 width="45px" height="35.337px" viewBox="27.5 35.792 45 35.337" enable-background="new 27.5 35.792 45 35.337"
	 xml:space="preserve">
<g id="mail" display="none">
	<g display="inline">
		<polygon fill="#DADADA" points="49.973,57.334 29.706,39.286 70.487,39.568 		"/>
		<polygon fill="#DADADA" points="41.877,53.399 27.5,65.849 27.674,40.75 		"/>
		<polygon fill="#DADADA" points="43.718,55.038 49.951,60.586 56.26,55.125 70.306,67.634 29.498,67.352 		"/>
		<polygon fill="#DADADA" points="58.122,53.512 72.5,41.06 72.326,66.159 		"/>
	</g>
</g>
<g id="google" opacity="0.75">
	<g>
		<path fill="#DADADA" d="M33.917,44.603c0,2.999,1.002,5.164,2.976,6.436c1.616,1.042,3.494,1.197,4.469,1.197
			c0.237,0,0.426-0.009,0.559-0.018c0,0-0.31,2.014,1.184,4.008l-0.067-0.001c-2.588,0.001-11.031,0.541-11.031,7.482
			c0,7.062,7.754,7.42,9.309,7.42c0.122,0,0.193-0.002,0.193-0.002c0.017,0,0.129,0.004,0.318,0.004c0.998,0,3.579-0.125,5.975-1.29
			c3.108-1.509,4.685-4.133,4.685-7.8c0-3.544-2.402-5.653-4.156-7.194c-1.071-0.939-1.995-1.75-1.995-2.539
			c0-0.804,0.675-1.407,1.53-2.172c1.383-1.237,2.687-2.998,2.687-6.327c0-2.926-0.379-4.89-2.717-6.136
			c0.244-0.125,1.105-0.216,1.532-0.275c1.267-0.173,3.121-0.369,3.121-1.404v-0.2h-9.234
			C43.162,35.794,33.917,36.136,33.917,44.603z M48.822,62.699c0.176,2.824-2.239,4.908-5.866,5.172
			c-3.684,0.269-6.717-1.389-6.893-4.21c-0.086-1.355,0.51-2.684,1.677-3.741c1.183-1.072,2.808-1.732,4.575-1.863
			c0.209-0.013,0.416-0.022,0.622-0.022C46.346,58.036,48.655,60.039,48.822,62.699z M46.411,42.671
			c0.906,3.186-0.462,6.517-2.641,7.131c-0.25,0.07-0.51,0.106-0.772,0.106c-1.997,0-3.975-2.02-4.708-4.803
			c-0.41-1.564-0.377-2.93,0.093-4.244c0.462-1.293,1.291-2.166,2.335-2.459c0.251-0.071,0.511-0.107,0.773-0.107
			C43.901,38.295,45.451,39.295,46.411,42.671z M61.968,49.609v-6.023h-3.815v6.023H52.13v3.815h6.023v6.023h3.815v-6.023h6.023
			v-3.815H61.968z"/>
	</g>
</g>
<g id="github" display="none">
	<g display="inline">
		<path fill="#DADADA" d="M56.051,70.49c-0.172,0.062-0.345,0.137-0.522,0.168c-0.678,0.121-1.112-0.229-1.116-0.922
			c-0.009-1.287-0.009-2.572,0.012-3.859c0.022-1.48-0.012-2.941-1.139-4.162c0.67-0.12,1.266-0.204,1.849-0.338
			c3.862-0.887,5.868-3.323,6.124-7.366c0.131-2.058-0.236-3.946-1.604-5.567c-0.099-0.114-0.104-0.373-0.057-0.539
			c0.364-1.34,0.258-2.649-0.166-3.959c-0.105-0.327-0.279-0.428-0.602-0.407c-1.134,0.063-2.173,0.461-3.089,1.073
			c-0.883,0.593-1.705,0.722-2.754,0.482c-2.31-0.521-4.635-0.369-6.94,0.165c-0.261,0.062-0.612-0.021-0.851-0.161
			c-1.082-0.634-2.164-1.25-3.412-1.496c-0.965-0.188-1.049-0.14-1.305,0.793c-0.322,1.176-0.354,2.353-0.025,3.536
			c0.047,0.172-0.002,0.448-0.117,0.575c-2.557,2.853-1.631,8.244,0.092,10.309c1.34,1.604,3.12,2.326,5.096,2.701
			c0.345,0.064,0.688,0.113,1.033,0.173c-0.296,0.77-0.562,1.497-0.863,2.212c-0.059,0.138-0.246,0.254-0.399,0.312
			c-1.938,0.752-3.604,0.199-4.713-1.56c-0.593-0.938-1.354-1.639-2.488-1.842c-0.036-0.007-0.073-0.026-0.106-0.021
			c-0.305,0.08-0.607,0.164-0.911,0.246c0.171,0.238,0.292,0.558,0.521,0.701c0.961,0.608,1.586,1.475,1.999,2.498
			c0.649,1.604,1.909,2.319,3.546,2.459c0.799,0.065,1.606,0.01,2.481,0.01c0,0.996,0.036,2.133-0.015,3.265
			c-0.026,0.61-0.639,0.854-1.373,0.604c-1.947-0.666-3.752-1.621-5.311-2.963c-5.629-4.849-7.799-10.979-5.928-18.154
			c1.865-7.152,6.726-11.539,13.994-12.916c10.057-1.902,19.584,5.422,20.582,15.631C68.362,60.219,63.625,67.75,56.051,70.49z
			 M46.57,61.651c-0.006,0.014-0.01,0.024-0.016,0.038c0.018,0.003,0.036,0.006,0.055,0.009
			C46.623,61.699,46.635,61.724,46.57,61.651z M42.02,64.832c0.157,0.097,0.307,0.22,0.477,0.273c0.062,0.02,0.177-0.121,0.38-0.271
			c-0.282-0.107-0.448-0.201-0.623-0.225C42.186,64.601,42.098,64.754,42.02,64.832z M43.453,65.078
			c0.023,0.105,0.232,0.236,0.355,0.234c0.119-0.002,0.235-0.16,0.354-0.25c-0.108-0.099-0.216-0.195-0.548-0.494
			C43.542,64.776,43.423,64.944,43.453,65.078z M45.211,64.655c-0.148,0.035-0.273,0.172-0.408,0.266
			c0.079,0.1,0.158,0.193,0.285,0.35c0.175-0.16,0.294-0.271,0.414-0.379C45.402,64.805,45.285,64.637,45.211,64.655z
			 M40.853,64.062c0.082,0.155,0.209,0.289,0.381,0.508c0.115-0.188,0.24-0.332,0.218-0.361c-0.109-0.143-0.257-0.26-0.403-0.367
			C41.039,63.834,40.836,64.028,40.853,64.062z"/>
	</g>
</g>
<g id="linked" display="none">
	<g display="inline">
		<path id="LinkedIn" fill="#DADADA" d="M68.439,57.446V71.08h-7.904V58.359c0-3.196-1.143-5.376-4.004-5.376
			c-2.184,0-3.484,1.47-4.056,2.891c-0.209,0.508-0.262,1.216-0.262,1.927V71.08h-7.907c0,0,0.106-21.545,0-23.777h7.906v3.37
			c-0.016,0.025-0.037,0.052-0.052,0.077h0.052v-0.077c1.05-1.618,2.926-3.929,7.125-3.929
			C64.539,46.744,68.439,50.142,68.439,57.446z M36.035,35.841c-2.705,0-4.474,1.774-4.474,4.107c0,2.282,1.718,4.11,4.369,4.11
			h0.053c2.757,0,4.472-1.828,4.472-4.11C40.403,37.615,38.74,35.841,36.035,35.841z M32.031,71.08h7.904V47.303h-7.904V71.08z"/>
	</g>
</g>
</svg>
