<?xml version="1.0" encoding="utf-8"?>
<!-- Generator: Adobe Illustrator 21.0.0, SVG Export Plug-In . SVG Version: 6.00 Build 0)  -->
<svg version="1.1" id="Layer_1" xmlns="http://www.w3.org/2000/svg" xmlns:xlink="http://www.w3.org/1999/xlink" x="0px" y="0px"
	 viewBox="0 0 45 35.3" style="enable-background:new 0 0 45 35.3;" xml:space="preserve">
<style type="text/css">
	.st0{display:none;}
	.st1{display:inline;}
	.st2{fill:#DADADA;}
</style>
<g id="mail" class="st0">
	<g class="st1">
		<polygon class="st2" points="22.5,21.5 2.2,3.5 43,3.8 		"/>
		<polygon class="st2" points="14.4,17.6 0,30.1 0.2,5 		"/>
		<polygon class="st2" points="16.2,19.2 22.5,24.8 28.8,19.3 42.8,31.8 2,31.6 		"/>
		<polygon class="st2" points="30.6,17.7 45,5.3 44.8,30.4 		"/>
	</g>
</g>
<g id="github" class="st0">
	<g class="st1">
		<path class="st2" d="M28.6,34.7c-0.2,0.1-0.3,0.1-0.5,0.2c-0.7,0.1-1.1-0.2-1.1-0.9c0-1.3,0-2.6,0-3.9c0-1.5,0-2.9-1.1-4.2
			c0.7-0.1,1.3-0.2,1.8-0.3c3.9-0.9,5.9-3.3,6.1-7.4c0.1-2.1-0.2-3.9-1.6-5.6c-0.1-0.1-0.1-0.4-0.1-0.5c0.4-1.3,0.3-2.6-0.2-4
			c-0.1-0.3-0.3-0.4-0.6-0.4c-1.1,0.1-2.2,0.5-3.1,1.1c-0.9,0.6-1.7,0.7-2.8,0.5c-2.3-0.5-4.6-0.4-6.9,0.2c-0.3,0.1-0.6,0-0.9-0.2
			c-1.1-0.6-2.2-1.3-3.4-1.5c-1-0.2-1-0.1-1.3,0.8c-0.3,1.2-0.4,2.4,0,3.5c0,0.2,0,0.4-0.1,0.6c-2.6,2.9-1.6,8.2,0.1,10.3
			c1.3,1.6,3.1,2.3,5.1,2.7c0.3,0.1,0.7,0.1,1,0.2c-0.3,0.8-0.6,1.5-0.9,2.2c-0.1,0.1-0.2,0.3-0.4,0.3c-1.9,0.8-3.6,0.2-4.7-1.6
			c-0.6-0.9-1.4-1.6-2.5-1.8c0,0-0.1,0-0.1,0c-0.3,0.1-0.6,0.2-0.9,0.2c0.2,0.2,0.3,0.6,0.5,0.7c1,0.6,1.6,1.5,2,2.5
			c0.6,1.6,1.9,2.3,3.5,2.5c0.8,0.1,1.6,0,2.5,0c0,1,0,2.1,0,3.3c0,0.6-0.6,0.9-1.4,0.6c-1.9-0.7-3.8-1.6-5.3-3
			c-5.6-4.8-7.8-11-5.9-18.2c1.9-7.2,6.7-11.5,14-12.9c10.1-1.9,19.6,5.4,20.6,15.6C40.9,24.4,36.1,32,28.6,34.7z M19.1,25.9
			C19.1,25.9,19.1,25.9,19.1,25.9C19.1,25.9,19.1,25.9,19.1,25.9C19.1,25.9,19.1,25.9,19.1,25.9z M14.5,29c0.2,0.1,0.3,0.2,0.5,0.3
			c0.1,0,0.2-0.1,0.4-0.3c-0.3-0.1-0.4-0.2-0.6-0.2C14.7,28.8,14.6,29,14.5,29z M16,29.3c0,0.1,0.2,0.2,0.4,0.2
			c0.1,0,0.2-0.2,0.4-0.3c-0.1-0.1-0.2-0.2-0.5-0.5C16,29,15.9,29.2,16,29.3z M17.7,28.9c-0.1,0-0.3,0.2-0.4,0.3
			c0.1,0.1,0.2,0.2,0.3,0.3c0.2-0.2,0.3-0.3,0.4-0.4C17.9,29,17.8,28.8,17.7,28.9z M13.4,28.3c0.1,0.2,0.2,0.3,0.4,0.5
			c0.1-0.2,0.2-0.3,0.2-0.4c-0.1-0.1-0.3-0.3-0.4-0.4C13.5,28,13.3,28.2,13.4,28.3z"/>
	</g>
</g>
<g id="linked" class="st0">
	<g class="st1">
		<path id="LinkedIn" class="st2" d="M40.9,21.7v13.6H33V22.6c0-3.2-1.1-5.4-4-5.4c-2.2,0-3.5,1.5-4.1,2.9c-0.2,0.5-0.3,1.2-0.3,1.9
			v13.3h-7.9c0,0,0.1-21.5,0-23.8h7.9v3.4c0,0,0,0.1-0.1,0.1h0.1v-0.1c1-1.6,2.9-3.9,7.1-3.9C37,11,40.9,14.3,40.9,21.7z M8.5,0
			C5.8,0,4.1,1.8,4.1,4.2c0,2.3,1.7,4.1,4.4,4.1h0.1c2.8,0,4.5-1.8,4.5-4.1C12.9,1.8,11.2,0,8.5,0z M4.5,35.3h7.9V11.5H4.5V35.3z"/>
	</g>
</g>
<g id="XMLID_13_">
	<path id="XMLID_17_" class="st2" d="M29.6,0H15.4C9.6,0,4.8,4.7,4.8,10.5v14.3c0,5.8,4.7,10.5,10.5,10.5h14.3
		c5.8,0,10.5-4.7,10.5-10.5V10.5C40.2,4.7,35.4,0,29.6,0z M36.6,24.8c0,3.9-3.1,7-7,7H15.4c-3.9,0-7-3.1-7-7V10.5c0-3.9,3.1-7,7-7
		h14.3c3.9,0,7,3.1,7,7L36.6,24.8L36.6,24.8z"/>
	<path id="XMLID_81_" class="st2" d="M22.5,8.5c-5,0-9.1,4.1-9.1,9.1s4.1,9.1,9.1,9.1s9.1-4.1,9.1-9.1S27.5,8.5,22.5,8.5z
		 M22.5,23.3c-3.1,0-5.6-2.5-5.6-5.6s2.5-5.6,5.6-5.6c3.1,0,5.6,2.5,5.6,5.6C28.1,20.8,25.6,23.3,22.5,23.3z"/>
	<circle id="XMLID_83_" class="st2" cx="31.7" cy="8.6" r="2.2"/>
</g>
</svg>
