<?xml version="1.0" encoding="utf-8"?>
<!-- Generator: Adobe Illustrator 21.0.0, SVG Export Plug-In . SVG Version: 6.00 Build 0)  -->
<svg version="1.1" id="Layer_1" xmlns="http://www.w3.org/2000/svg" xmlns:xlink="http://www.w3.org/1999/xlink" x="0px" y="0px"
	 viewBox="0 0 45 35.3" style="enable-background:new 0 0 45 35.3;" xml:space="preserve">
<style type="text/css">
	.st0{display:none;}
	.st1{display:inline;}
	.st2{fill:#DADADA;}
	.st3{fill:#34495E;}
	.st4{fill:#777777;}
</style>
<g id="mail" class="st0">
	<g class="st1">
		<polygon class="st2" points="22.5,21.5 2.2,3.5 43,3.8 		"/>
		<polygon class="st2" points="14.4,17.6 0,30.1 0.2,5 		"/>
		<polygon class="st2" points="16.2,19.2 22.5,24.8 28.8,19.3 42.8,31.8 2,31.6 		"/>
		<polygon class="st2" points="30.6,17.7 45,5.3 44.8,30.4 		"/>
	</g>
</g>
<g id="google" class="st0">
	<g class="st1">
		<path class="st3" d="M6.4,8.8c0,3,1,5.2,3,6.4c1.6,1,3.5,1.2,4.5,1.2c0.2,0,0.4,0,0.6,0c0,0-0.3,2,1.2,4l-0.1,0
			c-2.6,0-11,0.5-11,7.5c0,7.1,7.8,7.4,9.3,7.4c0.1,0,0.2,0,0.2,0c0,0,0.1,0,0.3,0c1,0,3.6-0.1,6-1.3c3.1-1.5,4.7-4.1,4.7-7.8
			c0-3.5-2.4-5.7-4.2-7.2c-1.1-0.9-2-1.8-2-2.5c0-0.8,0.7-1.4,1.5-2.2c1.4-1.2,2.7-3,2.7-6.3c0-2.9-0.4-4.9-2.7-6.1
			c0.2-0.1,1.1-0.2,1.5-0.3C23.1,1.4,25,1.2,25,0.2V0h-9.2C15.7,0,6.4,0.3,6.4,8.8z M21.3,26.9c0.2,2.8-2.2,4.9-5.9,5.2
			c-3.7,0.3-6.7-1.4-6.9-4.2c-0.1-1.4,0.5-2.7,1.7-3.7c1.2-1.1,2.8-1.7,4.6-1.9c0.2,0,0.4,0,0.6,0C18.8,22.2,21.2,24.2,21.3,26.9z
			 M18.9,6.9c0.9,3.2-0.5,6.5-2.6,7.1c-0.3,0.1-0.5,0.1-0.8,0.1c-2,0-4-2-4.7-4.8c-0.4-1.6-0.4-2.9,0.1-4.2c0.5-1.3,1.3-2.2,2.3-2.5
			c0.3-0.1,0.5-0.1,0.8-0.1C16.4,2.5,18,3.5,18.9,6.9z M34.5,13.8v-6h-3.8v6h-6v3.8h6v6h3.8v-6h6v-3.8H34.5z"/>
	</g>
</g>
<g id="github" class="st0">
	<g class="st1">
		<path class="st3" d="M28.6,34.7c-0.2,0.1-0.3,0.1-0.5,0.2c-0.7,0.1-1.1-0.2-1.1-0.9c0-1.3,0-2.6,0-3.9c0-1.5,0-2.9-1.1-4.2
			c0.7-0.1,1.3-0.2,1.8-0.3c3.9-0.9,5.9-3.3,6.1-7.4c0.1-2.1-0.2-3.9-1.6-5.6c-0.1-0.1-0.1-0.4-0.1-0.5c0.4-1.3,0.3-2.6-0.2-4
			c-0.1-0.3-0.3-0.4-0.6-0.4c-1.1,0.1-2.2,0.5-3.1,1.1c-0.9,0.6-1.7,0.7-2.8,0.5c-2.3-0.5-4.6-0.4-6.9,0.2c-0.3,0.1-0.6,0-0.9-0.2
			c-1.1-0.6-2.2-1.3-3.4-1.5c-1-0.2-1-0.1-1.3,0.8c-0.3,1.2-0.4,2.4,0,3.5c0,0.2,0,0.4-0.1,0.6c-2.6,2.9-1.6,8.2,0.1,10.3
			c1.3,1.6,3.1,2.3,5.1,2.7c0.3,0.1,0.7,0.1,1,0.2c-0.3,0.8-0.6,1.5-0.9,2.2c-0.1,0.1-0.2,0.3-0.4,0.3c-1.9,0.8-3.6,0.2-4.7-1.6
			c-0.6-0.9-1.4-1.6-2.5-1.8c0,0-0.1,0-0.1,0c-0.3,0.1-0.6,0.2-0.9,0.2c0.2,0.2,0.3,0.6,0.5,0.7c1,0.6,1.6,1.5,2,2.5
			c0.6,1.6,1.9,2.3,3.5,2.5c0.8,0.1,1.6,0,2.5,0c0,1,0,2.1,0,3.3c0,0.6-0.6,0.9-1.4,0.6c-1.9-0.7-3.8-1.6-5.3-3
			c-5.6-4.8-7.8-11-5.9-18.2c1.9-7.2,6.7-11.5,14-12.9c10.1-1.9,19.6,5.4,20.6,15.6C40.9,24.4,36.1,32,28.6,34.7z M19.1,25.9
			C19.1,25.9,19.1,25.9,19.1,25.9C19.1,25.9,19.1,25.9,19.1,25.9C19.1,25.9,19.1,25.9,19.1,25.9z M14.5,29c0.2,0.1,0.3,0.2,0.5,0.3
			c0.1,0,0.2-0.1,0.4-0.3c-0.3-0.1-0.4-0.2-0.6-0.2C14.7,28.8,14.6,29,14.5,29z M16,29.3c0,0.1,0.2,0.2,0.4,0.2
			c0.1,0,0.2-0.2,0.4-0.3c-0.1-0.1-0.2-0.2-0.5-0.5C16,29,15.9,29.2,16,29.3z M17.7,28.9c-0.1,0-0.3,0.2-0.4,0.3
			c0.1,0.1,0.2,0.2,0.3,0.3c0.2-0.2,0.3-0.3,0.4-0.4C17.9,29,17.8,28.8,17.7,28.9z M13.4,28.3c0.1,0.2,0.2,0.3,0.4,0.5
			c0.1-0.2,0.2-0.3,0.2-0.4c-0.1-0.1-0.3-0.3-0.4-0.4C13.5,28,13.3,28.2,13.4,28.3z"/>
	</g>
</g>
<g id="linked">
	<g>
		<path id="LinkedIn" class="st4" d="M40.9,21.7v13.6H33V22.6c0-3.2-1.1-5.4-4-5.4c-2.2,0-3.5,1.5-4.1,2.9c-0.2,0.5-0.3,1.2-0.3,1.9
			v13.3h-7.9c0,0,0.1-21.5,0-23.8h7.9v3.4c0,0,0,0.1-0.1,0.1h0.1v-0.1c1-1.6,2.9-3.9,7.1-3.9C37,11,40.9,14.4,40.9,21.7z M8.5,0.1
			c-2.7,0-4.5,1.8-4.5,4.1c0,2.3,1.7,4.1,4.4,4.1h0.1c2.8,0,4.5-1.8,4.5-4.1C12.9,1.8,11.2,0.1,8.5,0.1z M4.5,35.3h7.9V11.5H4.5
			V35.3z"/>
	</g>
</g>
</svg>
