<?xml version="1.0" encoding="utf-8"?>
<!-- Generator: Adobe Illustrator 17.0.0, SVG Export Plug-In . SVG Version: 6.00 Build 0)  -->
<!DOCTYPE svg PUBLIC "-//W3C//DTD SVG 1.1//EN" "http://www.w3.org/Graphics/SVG/1.1/DTD/svg11.dtd">
<svg version="1.1" id="Layer_1" xmlns="http://www.w3.org/2000/svg" xmlns:xlink="http://www.w3.org/1999/xlink" x="0px" y="0px"
	 width="60px" height="60px" viewBox="0 0 60 60" enable-background="new 0 0 60 60" xml:space="preserve">
<path fill="#DADADA" d="M3.417,3.417c0,0,1.351,9.138,0,23.167c0,0,9.138-1.351,23.167,0c0,0-1.351-9.138,0-23.167
	C26.583,3.417,17.445,4.768,3.417,3.417z"/>
<path fill="#DADADA" d="M33.5,3.417c0,0,1.351,9.138,0,23.167c0,0,9.138-1.351,23.167,0c0,0-1.351-9.138,0-23.167
	C56.667,3.417,47.529,4.768,33.5,3.417z"/>
<path fill="#DADADA" d="M3.417,32.917c0,0,1.351,9.138,0,23.167c0,0,9.138-1.351,23.167,0c0,0-1.351-9.138,0-23.167
	C26.583,32.917,17.445,34.268,3.417,32.917z"/>
<path fill="#DADADA" d="M33.5,32.917c0,0,1.351,9.138,0,23.167c0,0,9.138-1.351,23.167,0c0,0-1.351-9.138,0-23.167
	C56.667,32.917,47.529,34.268,33.5,32.917z"/>
</svg>
