<?xml version="1.0" encoding="utf-8"?>
<!-- Generator: Adobe Illustrator 17.0.0, SVG Export Plug-In . SVG Version: 6.00 Build 0)  -->
<!DOCTYPE svg PUBLIC "-//W3C//DTD SVG 1.1//EN" "http://www.w3.org/Graphics/SVG/1.1/DTD/svg11.dtd">
<svg version="1.1" id="Layer_1" xmlns="http://www.w3.org/2000/svg" xmlns:xlink="http://www.w3.org/1999/xlink" x="0px" y="0px"
	 width="45px" height="44.753px" viewBox="7.25 7.483 45 44.753" enable-background="new 7.25 7.483 45 44.753"
	 xml:space="preserve">
<g>
	<path fill="#DADADA" d="M7.25,7.483c0,0,1.142,7.722,0,19.578c0,0,7.722-1.142,19.578,0c0,0-1.142-7.722,0-19.578
		C26.827,7.483,19.105,8.625,7.25,7.483z"/>
	<path fill="#DADADA" d="M32.672,7.483c0,0,1.142,7.722,0,19.578c0,0,7.722-1.142,19.578,0c0,0-1.142-7.722,0-19.578
		C52.25,7.483,44.528,8.625,32.672,7.483z"/>
	<path fill="#DADADA" d="M7.25,32.659c0,0,1.142,7.722,0,19.578c0,0,7.722-1.142,19.578,0c0,0-1.142-7.722,0-19.578
		C26.827,32.659,19.105,33.8,7.25,32.659z"/>
	<path fill="#DADADA" d="M32.672,32.659c0,0,1.142,7.722,0,19.578c0,0,7.722-1.142,19.578,0c0,0-1.142-7.722,0-19.578
		C52.25,32.659,44.528,33.8,32.672,32.659z"/>
</g>
</svg>
