<?xml version="1.0" encoding="utf-8"?>
<!-- Generator: Adobe Illustrator 17.0.0, SVG Export Plug-In . SVG Version: 6.00 Build 0)  -->
<!DOCTYPE svg PUBLIC "-//W3C//DTD SVG 1.1//EN" "http://www.w3.org/Graphics/SVG/1.1/DTD/svg11.dtd">
<svg version="1.1" id="Layer_1" xmlns="http://www.w3.org/2000/svg" xmlns:xlink="http://www.w3.org/1999/xlink" x="0px" y="0px"
	 width="445.652px" height="386.09px" viewBox="0 0 445.652 386.09" enable-background="new 0 0 445.652 386.09"
	 xml:space="preserve">
<g>
	<path fill="#DADADA" d="M134.75,203.092C98.851,103.498,38.558,81.899,38.558,81.899v240.42H0v-313
		c0,0,121.344,30.372,163.304,148.315C163.304,157.634,148.585,174.925,134.75,203.092z"/>
	<path fill="#DADADA" d="M284.049,63.696c0,0-131.551,77.232-181.449,258.623h43.094c0,0,19.657-84.734,95.261-161.85v161.85h43.094
		V63.696z"/>
	<path fill="#DADADA" d="M353.793,71.354v253.554h44.795V54.775c27.203-7.558,47.063-8.846,47.063-8.846V0
		c-89.024,12.475-145.726,52.734-145.726,52.734V104.9c17.96-14.398,36.502-25.298,54.092-33.546"/>
	<g>
		<path fill="#DADADA" d="M42.19,352.258l-11.007,33.178h-9.186l-10.855-33.112v33.112H0.363v-48.687h16.169l10.02,31.279
			l10.096-31.279h16.321v48.687H42.19V352.258z"/>
		<path fill="#DADADA" d="M83.598,386.09c-4.396,0-8.109-0.665-11.141-1.996c-3.031-1.33-5.495-3.141-7.389-5.431
			c-1.896-2.291-3.259-4.951-4.093-7.984c-0.834-3.031-1.25-6.227-1.25-9.587c0-3.358,0.416-6.554,1.25-9.587
			c0.834-3.031,2.198-5.692,4.093-7.983c1.894-2.29,4.358-4.1,7.389-5.432c3.032-1.33,6.746-1.995,11.141-1.995
			s8.096,0.665,11.103,1.995c3.005,1.332,5.456,3.142,7.352,5.432c1.894,2.291,3.258,4.952,4.092,7.983
			c0.834,3.033,1.251,6.229,1.251,9.587c0,7.897-2.021,14.005-6.063,18.323C97.239,383.865,91.328,386.09,83.598,386.09z
			 M83.598,344.994c-4.113,0-7.083,1.32-8.91,3.958c-1.93,2.728-2.895,6.774-2.895,12.14c0,5.366,0.964,9.413,2.895,12.141
			c1.826,2.639,4.796,3.958,8.91,3.958c4.061,0,7.006-1.319,8.834-3.958c1.929-2.728,2.894-6.774,2.894-12.141
			c0-5.365-0.965-9.412-2.894-12.14C90.604,346.315,87.659,344.994,83.598,344.994z"/>
		<path fill="#DADADA" d="M136.089,385.436h-12.07v-19.305l-15.637-29.382h12.753l8.881,17.603l8.881-17.603h12.753l-15.562,29.186
			V385.436z"/>
		<path fill="#DADADA" d="M156.661,336.749h37.879v8.899h-25.81v9.947h18.826v8.899l-18.826,0.066v11.975h26.721v8.899h-38.79
			V336.749z"/>
		<path fill="#DADADA" d="M222.358,366.197h-7.703v19.239h-12.07v-48.687h22.613c2.773,0,5.293,0.327,7.563,0.981
			s4.197,1.614,5.785,2.879c1.588,1.266,2.824,2.847,3.707,4.744c0.883,1.898,1.324,4.091,1.324,6.577
			c0,2.879-0.844,5.377-2.531,7.493c-1.686,2.116-4.09,3.654-7.211,4.613l12.246,21.398h-13.455L222.358,366.197z M223.081,345.649
			h-8.426v11.648h7.211c1.164,0,2.328-0.054,3.492-0.16c1.164-0.105,2.201-0.352,3.113-0.735c0.91-0.385,1.643-0.939,2.201-1.665
			c0.555-0.725,0.834-1.706,0.834-2.943c0-1.108-0.178-2.048-0.531-2.816c-0.354-0.768-0.861-1.387-1.518-1.855
			C228.142,346.14,226.015,345.649,223.081,345.649z"/>
		<path fill="#DADADA" d="M298.382,385.436h-12.069v-39.787h-14.271v-8.899h40.688v8.899h-14.347V385.436z"/>
		<path fill="#DADADA" d="M319.029,336.749h37.88v8.899H331.1v9.947h18.825v8.899l-18.825,0.066v11.975h26.72v8.899h-38.79V336.749z
			"/>
		<path fill="#DADADA" d="M380.972,370.32l-8.577,15.116H359.11l15.258-24.933l-14.348-23.754h13.285l7.666,13.677l7.667-13.677
			h13.284l-14.347,23.754l15.258,24.933H389.55L380.972,370.32z"/>
	</g>
</g>
</svg>
