<?xml version="1.0" encoding="utf-8"?>
<!-- Generator: Adobe Illustrator 17.0.0, SVG Export Plug-In . SVG Version: 6.00 Build 0)  -->
<!DOCTYPE svg PUBLIC "-//W3C//DTD SVG 1.1//EN" "http://www.w3.org/Graphics/SVG/1.1/DTD/svg11.dtd">
<svg version="1.1" id="Layer_1" xmlns="http://www.w3.org/2000/svg" xmlns:xlink="http://www.w3.org/1999/xlink" x="0px" y="0px"
	 width="498px" height="348.135px" viewBox="0 0 498 348.135" enable-background="new 0 0 498 348.135" xml:space="preserve">
<text transform="matrix(1 0 0 1 19.6436 311.0676)" fill="#DADADA" font-family="'ArialRoundedMTBold'" font-size="36.5698">Patient Transfer Assistant</text>
<text transform="matrix(1 0 0 1 20.8174 339.4182)" fill="#DADADA" font-family="'ArialRoundedMTBold'" font-size="22.5646">Lateral Transfer and Repositioning Device</text>
<g>
	<g>
		<g>
			<polygon fill="#DADADA" points="304.563,51.168 304.563,25.88 178.12,25.88 178.12,51.168 227.835,51.168 227.835,185.309 
				227.834,185.309 227.834,231.065 204.316,231.065 241.341,268.086 278.366,231.065 254.849,231.065 254.849,185.309 
				254.849,185.309 254.849,51.168 			"/>
		</g>
	</g>
	<g>
		<g>
			<path fill="#DADADA" d="M109.737,22.43c-34.484,0-64.372,26.727-64.372,70.12v134.489h0.007v4.023H21.854l37.025,37.023
				l37.026-37.023H72.387v-45.754h-0.009V89.102c0-25.577,16.092-41.381,37.645-41.381c22.128,0,39.083,14.942,39.083,39.369
				c0,24.14-16.092,38.796-37.359,38.796H83.01v25.287h36.497c31.898,0,56.612-28.737,56.612-64.083
				C176.121,52.893,150.543,22.43,109.737,22.43z"/>
		</g>
	</g>
	<g>
		<g>
			<polygon fill="#DADADA" points="318.657,38.54 284.078,3.958 284.078,25.924 241.341,25.924 198.605,25.924 198.605,3.958 
				164.025,38.54 198.605,73.122 198.605,51.156 241.341,51.156 284.078,51.156 284.078,73.122 			"/>
		</g>
	</g>
	<path fill="#DADADA" d="M453.766,231.065V185.31h-0.071V99.447c0-47.704-29.599-77.017-68.682-77.017
		c-39.081,0-68.683,29.312-68.683,77.017v127.594h0.087v4.023h-23.518l37.025,37.021l37.024-37.021H343.43v-45.755h-0.088V97.723
		c0-31.61,16.956-50.002,41.669-50.002c24.715,0,41.669,18.392,41.669,50.002v12.587h-42.849V88.255l-34.72,34.723l34.72,34.722
		v-22.055h32.919v0.013h9.93v91.384h0.069v4.023h-23.518l37.025,37.021l37.024-37.021H453.766L453.766,231.065z"/>
</g>
</svg>
