<?xml version="1.0" encoding="utf-8"?>
<!-- Generator: Adobe Illustrator 17.0.0, SVG Export Plug-In . SVG Version: 6.00 Build 0)  -->
<!DOCTYPE svg PUBLIC "-//W3C//DTD SVG 1.1//EN" "http://www.w3.org/Graphics/SVG/1.1/DTD/svg11.dtd">
<svg version="1.1" id="Layer_1" xmlns="http://www.w3.org/2000/svg" xmlns:xlink="http://www.w3.org/1999/xlink" x="0px" y="0px"
	 width="643.488px" height="322.645px" viewBox="0 0 643.488 322.645" enable-background="new 0 0 643.488 322.645"
	 xml:space="preserve">
<g>
	<g>
		<path fill="#DADADA" d="M8.998,309.305c1.596,1.368,3.362,2.487,5.301,3.352c1.938,0.867,3.842,1.3,5.712,1.3
			c2.097,0,3.659-0.387,4.685-1.163c1.026-0.776,1.539-1.824,1.539-3.148c0-0.683-0.149-1.274-0.445-1.778
			c-0.298-0.5-0.73-0.946-1.3-1.333c-0.571-0.387-1.254-0.752-2.052-1.095c-0.798-0.341-1.675-0.718-2.633-1.128l-5.814-2.461
			c-1.14-0.456-2.247-1.05-3.318-1.778c-1.072-0.73-2.029-1.585-2.873-2.565c-0.844-0.98-1.516-2.122-2.018-3.42
			c-0.502-1.3-0.752-2.772-0.752-4.413c0-1.822,0.386-3.546,1.162-5.163c0.775-1.62,1.87-3.033,3.284-4.241
			c1.413-1.209,3.088-2.154,5.027-2.839c1.937-0.683,4.07-1.026,6.396-1.026c2.599,0,5.164,0.502,7.695,1.504
			c2.531,1.004,4.754,2.463,6.669,4.378l-5.13,6.361c-1.46-1.139-2.919-2.018-4.378-2.633s-3.077-0.924-4.856-0.924
			c-1.734,0-3.113,0.354-4.138,1.061c-1.026,0.707-1.539,1.7-1.539,2.974c0,0.685,0.171,1.267,0.513,1.745
			c0.341,0.478,0.821,0.913,1.436,1.3c0.615,0.387,1.334,0.752,2.154,1.094c0.821,0.341,1.71,0.718,2.668,1.128l5.746,2.326
			c2.736,1.094,4.891,2.598,6.464,4.513s2.36,4.448,2.36,7.594c0,1.87-0.376,3.637-1.128,5.3c-0.753,1.665-1.847,3.124-3.284,4.378
			c-1.436,1.254-3.204,2.257-5.301,3.009c-2.098,0.754-4.47,1.13-7.113,1.13c-2.919,0-5.826-0.537-8.721-1.609
			c-2.897-1.07-5.484-2.679-7.764-4.822L8.998,309.305z"/>
		<path fill="#DADADA" d="M44.156,277.225h10.056v36.117h17.648v8.481H44.156V277.225z"/>
		<path fill="#DADADA" d="M79.588,277.225h10.056v44.598H79.588V277.225z"/>
		<path fill="#DADADA" d="M100.177,277.225h12.586c3.42,0,6.498,0.433,9.234,1.3c2.736,0.865,5.084,2.2,7.046,4
			c1.96,1.802,3.465,4.094,4.514,6.874c1.048,2.783,1.573,6.089,1.573,9.918c0,3.831-0.525,7.161-1.573,9.987
			c-1.05,2.828-2.532,5.165-4.446,7.011c-1.915,1.848-4.207,3.226-6.875,4.139c-2.668,0.913-5.643,1.368-8.927,1.368h-13.133
			V277.225z M112.148,313.684c1.915,0,3.647-0.25,5.198-0.752c1.55-0.502,2.873-1.311,3.968-2.428s1.949-2.587,2.565-4.413
			c0.615-1.822,0.923-4.081,0.923-6.772c0-2.644-0.308-4.866-0.923-6.668c-0.616-1.802-1.471-3.237-2.565-4.309
			s-2.417-1.835-3.968-2.291c-1.551-0.456-3.283-0.685-5.198-0.685h-1.915v28.319H112.148z"/>
		<path fill="#DADADA" d="M143.612,277.225h27.909v8.481h-17.853v8.961h15.185v8.413h-15.185v10.261h18.537v8.481h-28.593V277.225z"
			/>
		<path fill="#DADADA" d="M230.481,311.221h-13.612l-2.737,10.603h-10.26l13.955-44.598h12.107l13.954,44.598h-10.671
			L230.481,311.221z M228.429,303.355l-1.026-4.104c-0.639-2.233-1.254-4.605-1.847-7.113c-0.592-2.507-1.186-4.926-1.778-7.25
			h-0.273c-0.548,2.372-1.106,4.8-1.676,7.285c-0.571,2.485-1.175,4.846-1.813,7.079l-1.095,4.104H228.429z"/>
		<path fill="#DADADA" d="M251.617,309.305c1.596,1.368,3.362,2.487,5.301,3.352c1.938,0.867,3.842,1.3,5.712,1.3
			c2.097,0,3.659-0.387,4.685-1.163c1.026-0.776,1.539-1.824,1.539-3.148c0-0.683-0.149-1.274-0.445-1.778
			c-0.298-0.5-0.73-0.946-1.3-1.333c-0.571-0.387-1.254-0.752-2.052-1.095c-0.798-0.341-1.675-0.718-2.633-1.128l-5.814-2.461
			c-1.14-0.456-2.247-1.05-3.318-1.778c-1.072-0.73-2.029-1.585-2.873-2.565c-0.844-0.98-1.516-2.122-2.018-3.42
			c-0.502-1.3-0.752-2.772-0.752-4.413c0-1.822,0.386-3.546,1.162-5.163c0.775-1.62,1.87-3.033,3.284-4.241
			c1.413-1.209,3.088-2.154,5.027-2.839c1.937-0.683,4.07-1.026,6.396-1.026c2.599,0,5.164,0.502,7.695,1.504
			c2.531,1.004,4.754,2.463,6.669,4.378l-5.13,6.361c-1.46-1.139-2.919-2.018-4.378-2.633c-1.46-0.615-3.077-0.924-4.856-0.924
			c-1.734,0-3.113,0.354-4.138,1.061c-1.026,0.707-1.539,1.7-1.539,2.974c0,0.685,0.171,1.267,0.513,1.745
			c0.341,0.478,0.821,0.913,1.436,1.3c0.615,0.387,1.334,0.752,2.154,1.094s1.71,0.718,2.668,1.128l5.746,2.326
			c2.736,1.094,4.891,2.598,6.464,4.513c1.573,1.915,2.36,4.448,2.36,7.594c0,1.87-0.376,3.637-1.128,5.3
			c-0.753,1.665-1.847,3.124-3.284,4.378c-1.436,1.254-3.204,2.257-5.301,3.009c-2.098,0.754-4.47,1.13-7.113,1.13
			c-2.919,0-5.826-0.537-8.721-1.609c-2.897-1.07-5.484-2.679-7.764-4.822L251.617,309.305z"/>
		<path fill="#DADADA" d="M288.418,309.305c1.596,1.368,3.362,2.487,5.301,3.352c1.938,0.867,3.842,1.3,5.712,1.3
			c2.097,0,3.659-0.387,4.685-1.163c1.026-0.776,1.539-1.824,1.539-3.148c0-0.683-0.149-1.274-0.445-1.778
			c-0.298-0.5-0.73-0.946-1.3-1.333c-0.571-0.387-1.254-0.752-2.052-1.095c-0.798-0.341-1.675-0.718-2.633-1.128l-5.814-2.461
			c-1.14-0.456-2.247-1.05-3.318-1.778c-1.072-0.73-2.029-1.585-2.873-2.565c-0.844-0.98-1.516-2.122-2.018-3.42
			c-0.502-1.3-0.752-2.772-0.752-4.413c0-1.822,0.386-3.546,1.162-5.163c0.775-1.62,1.87-3.033,3.284-4.241
			c1.413-1.209,3.088-2.154,5.027-2.839c1.937-0.683,4.07-1.026,6.396-1.026c2.599,0,5.164,0.502,7.695,1.504
			c2.531,1.004,4.754,2.463,6.669,4.378l-5.13,6.361c-1.46-1.139-2.919-2.018-4.378-2.633c-1.46-0.615-3.077-0.924-4.856-0.924
			c-1.734,0-3.113,0.354-4.138,1.061c-1.026,0.707-1.539,1.7-1.539,2.974c0,0.685,0.171,1.267,0.513,1.745
			c0.341,0.478,0.821,0.913,1.436,1.3c0.615,0.387,1.334,0.752,2.155,1.094c0.821,0.341,1.71,0.718,2.668,1.128l5.746,2.326
			c2.736,1.094,4.891,2.598,6.464,4.513c1.573,1.915,2.36,4.448,2.36,7.594c0,1.87-0.376,3.637-1.128,5.3
			c-0.753,1.665-1.847,3.124-3.284,4.378c-1.436,1.254-3.204,2.257-5.301,3.009c-2.098,0.754-4.47,1.13-7.113,1.13
			c-2.919,0-5.826-0.537-8.721-1.609c-2.897-1.07-5.484-2.679-7.764-4.822L288.418,309.305z"/>
		<path fill="#DADADA" d="M323.577,277.225h10.056v44.598h-10.056V277.225z"/>
		<path fill="#DADADA" d="M347.039,309.305c1.596,1.368,3.362,2.487,5.301,3.352c1.938,0.867,3.842,1.3,5.712,1.3
			c2.097,0,3.659-0.387,4.685-1.163c1.026-0.776,1.539-1.824,1.539-3.148c0-0.683-0.149-1.274-0.445-1.778
			c-0.298-0.5-0.73-0.946-1.3-1.333c-0.571-0.387-1.254-0.752-2.052-1.095c-0.798-0.341-1.675-0.718-2.633-1.128l-5.814-2.461
			c-1.14-0.456-2.247-1.05-3.318-1.778c-1.072-0.73-2.029-1.585-2.873-2.565c-0.844-0.98-1.516-2.122-2.018-3.42
			c-0.502-1.3-0.752-2.772-0.752-4.413c0-1.822,0.386-3.546,1.162-5.163c0.775-1.62,1.87-3.033,3.284-4.241
			c1.413-1.209,3.088-2.154,5.027-2.839c1.937-0.683,4.07-1.026,6.396-1.026c2.599,0,5.164,0.502,7.695,1.504
			c2.531,1.004,4.754,2.463,6.669,4.378l-5.13,6.361c-1.46-1.139-2.919-2.018-4.378-2.633s-3.077-0.924-4.856-0.924
			c-1.734,0-3.113,0.354-4.138,1.061c-1.026,0.707-1.539,1.7-1.539,2.974c0,0.685,0.171,1.267,0.513,1.745
			c0.341,0.478,0.821,0.913,1.436,1.3c0.615,0.387,1.334,0.752,2.154,1.094s1.71,0.718,2.668,1.128l5.746,2.326
			c2.736,1.094,4.891,2.598,6.464,4.513s2.36,4.448,2.36,7.594c0,1.87-0.376,3.637-1.128,5.3c-0.753,1.665-1.847,3.124-3.284,4.378
			c-1.436,1.254-3.204,2.257-5.301,3.009c-2.098,0.754-4.47,1.13-7.113,1.13c-2.919,0-5.826-0.537-8.721-1.609
			c-2.897-1.07-5.484-2.679-7.764-4.822L347.039,309.305z"/>
		<path fill="#DADADA" d="M389.519,285.706h-12.245v-8.481h34.611v8.481h-12.244v36.117h-10.122V285.706z"/>
		<path fill="#DADADA" d="M433.09,277.225h10.67l7.457,20.042l2.668,7.796h0.272l2.669-7.796l7.25-20.042h10.603v44.598h-9.372
			v-16.349c0-1.094,0.046-2.302,0.137-3.624c0.091-1.322,0.204-2.657,0.341-4.002c0.137-1.344,0.274-2.668,0.411-3.968
			c0.137-1.3,0.274-2.496,0.411-3.591h-0.274l-3.694,10.329l-6.84,17.307h-4.037l-6.84-17.307l-3.557-10.329h-0.274
			c0.137,1.095,0.274,2.291,0.411,3.591c0.137,1.3,0.261,2.624,0.376,3.968c0.113,1.346,0.215,2.68,0.307,4.002
			c0.091,1.322,0.137,2.531,0.137,3.624v16.349h-9.233V277.225z"/>
		<path fill="#DADADA" d="M503.339,322.645c-3.011,0-5.759-0.537-8.244-1.609c-2.485-1.07-4.618-2.609-6.396-4.618
			c-1.778-2.005-3.157-4.446-4.137-7.318c-0.982-2.874-1.472-6.133-1.472-9.783c0-3.646,0.489-6.896,1.472-9.746
			c0.98-2.85,2.359-5.244,4.137-7.183c1.778-1.937,3.911-3.42,6.396-4.446c2.485-1.026,5.233-1.539,8.244-1.539
			c3.009,0,5.755,0.513,8.242,1.539c2.485,1.026,4.618,2.52,6.396,4.481c1.778,1.961,3.157,4.367,4.137,7.216
			c0.98,2.852,1.472,6.078,1.472,9.679c0,3.65-0.491,6.909-1.472,9.783c-0.98,2.872-2.359,5.313-4.137,7.318
			c-1.778,2.008-3.911,3.548-6.396,4.618C509.094,322.108,506.348,322.645,503.339,322.645z M503.339,313.958
			c3.055,0,5.472-1.311,7.25-3.933c1.778-2.622,2.668-6.191,2.668-10.707c0-4.468-0.889-7.957-2.668-10.464
			c-1.778-2.509-4.196-3.763-7.25-3.763c-3.056,0-5.474,1.254-7.252,3.763c-1.778,2.507-2.668,5.996-2.668,10.464
			c0,4.515,0.889,8.085,2.668,10.707C497.866,312.647,500.283,313.958,503.339,313.958z"/>
		<path fill="#DADADA" d="M525.569,277.225h10.67l5.335,20.794c0.685,2.461,1.289,4.846,1.813,7.148
			c0.524,2.302,1.128,4.685,1.813,7.148h0.274c0.637-2.463,1.231-4.846,1.778-7.148c0.546-2.302,1.139-4.687,1.778-7.148
			l5.266-20.794h10.261l-13.407,44.598h-12.107L525.569,277.225z"/>
		<path fill="#DADADA" d="M569.347,277.225h27.908v8.481h-17.853v8.961h15.185v8.413h-15.185v10.261h18.536v8.481h-28.591V277.225z"
			/>
		<path fill="#DADADA" d="M630.975,321.823l-8.55-16.075h-5.54v16.075H606.83v-44.598h16.075c2.37,0,4.594,0.228,6.668,0.683
			c2.076,0.456,3.887,1.221,5.439,2.291c1.548,1.074,2.781,2.498,3.694,4.276c0.911,1.778,1.368,3.991,1.368,6.635
			c0,3.283-0.718,5.985-2.154,8.105c-1.437,2.122-3.363,3.706-5.781,4.754l10.124,17.853H630.975z M616.885,297.746h5.198
			c2.644,0,4.661-0.559,6.054-1.676c1.389-1.117,2.085-2.77,2.085-4.959s-0.696-3.716-2.085-4.583c-1.393-0.865-3.411-1.3-6.054-1.3
			h-5.198V297.746z"/>
	</g>
	<polygon fill="#DADADA" points="151.253,197.764 141.937,233.707 220.836,233.707 229.136,197.766 	"/>
	<polygon fill="#DADADA" points="301.098,197.768 291.436,197.768 299.736,233.707 301.098,233.707 	"/>
	<path fill="#DADADA" d="M16.291,93.622c3.247,4.836,7.79,10.054,13.625,15.657c2.863,2.748,7.927,7.198,15.194,13.35l27.542,23.975
		l80.528-0.001c-1.582-3.186-3.776-6.667-6.621-10.459c-2.967-3.956-6.485-7.965-10.548-12.032
		c-4.067-4.063-7.857-7.525-11.373-10.383l-11.867-9.395c-8.462-6.593-14.668-11.563-18.624-14.916
		c-3.956-3.35-7.144-6.428-9.56-9.229c-2.419-2.802-4.066-5.247-4.945-7.335c-0.881-2.086-1.318-4.228-1.318-6.427
		c0-4.723,2.828-8.679,8.488-11.867c5.658-3.186,12.773-4.78,21.343-4.78c6.041,0,13.24,0.798,21.591,2.389
		c8.349,1.594,17.578,4.424,27.689,8.488c-1.648-15.822-2.694-26.891-3.131-33.211c-0.44-6.317-0.824-13.267-1.154-20.849
		c-21.867-4.285-42.085-6.427-60.652-6.427c-9.451,0-18.624,0.741-27.524,2.224s-17.252,4.26-25.052,8.323
		c-7.804,4.067-14.067,8.9-18.79,14.504c-4.725,5.604-8.269,11.62-10.631,18.047C8.14,49.698,6.961,56.265,6.961,62.966
		c0,5.604,0.742,10.906,2.228,15.905C10.675,83.872,13.041,88.788,16.291,93.622z"/>
	<path fill="#DADADA" d="M0,197.76c0.715,8.498,1.387,17.899,2.017,28.209c27.138,5.163,49.61,7.747,67.409,7.747
		c11.538,0,22.498-1.154,32.881-3.462c10.384-2.307,19.915-6.346,28.595-12.114c8.115-5.394,14.479-12.197,19.138-20.377L0,197.76z"
		/>
	<polygon fill="#DADADA" points="202.513,0 164.514,146.603 240.952,146.602 258.229,71.795 262.342,71.795 279.619,146.601 
		301.098,146.601 301.098,110.66 362.616,172.182 301.1,233.707 378.636,233.707 318.058,0 	"/>
	<polygon fill="#DADADA" points="563.912,197.737 565.337,233.709 643.488,233.709 641.301,197.735 	"/>
	<polygon fill="#DADADA" points="463.46,197.739 472.6,233.709 529.813,233.709 538.835,197.738 	"/>
	<polygon fill="#DADADA" points="424.221,197.74 424.221,233.682 362.703,172.155 424.221,110.632 424.221,146.573 440.529,146.574 
		441.565,120.408 443.809,120.408 450.458,146.574 551.667,146.575 558.23,120.408 560.849,120.408 561.885,146.575 638.19,146.576 
		629.277,0.002 531.683,0.002 502.515,118.912 499.899,118.912 470.731,0.002 373.134,0.002 358.926,233.709 437.077,233.709 
		438.502,197.74 	"/>
</g>
</svg>
